<?xml version="1.0" encoding="UTF-8"?>
<svg width="369px" height="283px" viewBox="0 0 369 283" version="1.1" xmlns="http://www.w3.org/2000/svg" xmlns:xlink="http://www.w3.org/1999/xlink">
    <!-- Generator: sketchtool 53.2 (72643) - https://sketchapp.com -->
    <title>AA912701-55C2-4034-9E74-8E10B28EFC01@1x</title>
    <desc>Created with sketchtool.</desc>
    <defs>
        <polygon id="path-1" points="0 311.520011 368.223762 311.520011 368.223762 0.766377418 0 0.766377418"></polygon>
        <polygon id="path-3" points="0.712888591 0.766377418 142.280969 0.766377418 142.280969 311.519615 0.712888591 311.519615"></polygon>
    </defs>
    <g id="Desktop" stroke="none" stroke-width="1" fill="none" fill-rule="evenodd" opacity="0.5">
        <g id="Homepage" transform="translate(-935.000000, -2799.000000)">
            <g id="Footer" transform="translate(0.000000, 2433.000000)">
                <g transform="translate(0.000000, 169.738462)" id="Footer-Graphic">
                    <g transform="translate(935.000000, 195.698462)">
                        <g id="Group-157">
                            <path d="M6.9810785,177.180348 C6.9810785,176.494239 7.48964845,175.935223 8.1158013,175.935223 L133.662794,175.935223 C134.28799,175.935223 134.79656,176.494239 134.79656,177.180348 L134.79656,209.656786 C134.79656,210.34385 134.28799,210.901911 133.662794,210.901911 L8.1158013,210.901911 C7.48964845,210.901911 6.9810785,210.34385 6.9810785,209.656786 L6.9810785,177.180348 Z M8.1158013,211.860361 L133.662794,211.860361 C134.768838,211.860361 135.669351,210.872288 135.669351,209.656787 L135.669351,177.180348 C135.669351,175.965802 134.768838,174.976774 133.662794,174.976774 L8.1158013,174.976774 C7.0088013,174.976774 6.1092443,175.965802 6.1092443,177.180348 L6.1092443,209.656787 C6.1092443,210.872288 7.0088013,211.860361 8.1158013,211.860361 L8.1158013,211.860361 Z" id="Fill-1" fill="#15484E"></path>
                            <mask id="mask-2" fill="white">
                                <use xlink:href="#path-1"></use>
                            </mask>
                            <g id="Clip-4"></g>
                            <path d="M9.14183161,208.742294 L132.637337,208.742294 L132.637337,178.094841 L9.14183161,178.094841 L9.14183161,208.742294 Z M133.662124,214.019978 L8.11513212,214.019978 C5.81796373,214.019978 3.94906477,212.062944 3.94906477,209.656787 L3.94906477,177.180348 C3.94906477,174.774191 5.81796373,172.818113 8.11513212,172.818113 L133.662124,172.818113 C135.961205,172.818113 137.830104,174.774191 137.830104,177.180348 L137.830104,209.656787 C137.830104,212.062944 135.961205,214.019978 133.662124,214.019978 L133.662124,214.019978 Z" id="Fill-3" fill="#15484E" mask="url(#mask-2)"></path>
                            <path d="M11.7347736,174.057021 C12.4641699,166.807969 17.2257995,161.192965 22.9768461,161.192965 L118.801175,161.192965 C124.513027,161.192965 129.248846,166.729612 130.027952,173.906039 C130.329079,173.947129 130.628294,174.005419 130.925597,174.079955 C130.198113,166.190663 125.039761,160.054865 118.801175,160.054865 L22.9768461,160.054865 C16.753556,160.054865 11.6066751,166.158173 10.8591155,174.017842 C11.1372995,173.84297 11.4814446,173.855393 11.7347736,174.057021" id="Fill-5" fill="#15484E" mask="url(#mask-2)"></path>
                            <path d="M13.4170694,178.046387 L11.1782145,176.263269 L8.39733109,178.008164 L8.7959658,173.821755 C9.65441658,164.792453 15.7505642,157.982969 22.9766549,157.982969 L118.800984,157.982969 C126.053841,157.982969 132.152857,164.82112 132.989321,173.889601 L133.256989,176.803174 L130.419704,176.089353 C130.196966,176.033929 129.973272,175.989973 129.746709,175.958438 L128.142611,175.73961 L127.96767,174.129453 C127.294676,167.935365 123.354215,163.264476 118.800984,163.264476 L22.9766549,163.264476 C18.3746705,163.264476 14.4284736,167.9927 13.796585,174.26419 L13.4170694,178.046387 Z" id="Fill-6" fill="#15484E" mask="url(#mask-2)"></path>
                            <path d="M139.682942,290.823793 L139.246069,290.823793 L139.246069,295.42588 C139.246069,302.284098 134.159414,307.86279 127.904577,307.86279 L14.2869917,307.86279 C8.03311088,307.86279 2.94549948,302.284098 2.94549948,295.42588 L2.94549948,290.823793 L2.50862642,290.823793 L2.50862642,289.951345 L2.94549948,289.951345 L2.94549948,232.82947 C2.94549948,225.971252 8.03311088,220.391604 14.2869917,220.391604 L127.904577,220.391604 C134.159414,220.391604 139.246069,225.971252 139.246069,232.82947 L139.246069,289.951345 L139.682942,289.951345 L139.682942,290.823793 Z M127.904577,219.435066 L14.2869917,219.435066 C7.55130777,219.435066 2.07270933,225.44377 2.07270933,232.82947 L2.07270933,295.425878 C2.07270933,302.811578 7.55130777,308.819327 14.2869917,308.819327 L127.904577,308.819327 C134.640261,308.819327 140.11886,302.811578 140.11886,295.425878 L140.11886,232.82947 C140.11886,225.44377 134.640261,219.435066 127.904577,219.435066 L127.904577,219.435066 Z" id="Fill-7" fill="#15484E" mask="url(#mask-2)"></path>
                            <path d="M5.01782642,288.752091 L5.01782642,295.425882 C5.01782642,301.141222 9.17624611,305.791088 14.2868005,305.791088 L127.904386,305.791088 C133.015896,305.791088 137.17336,301.141222 137.17336,295.425882 L137.17336,232.829475 C137.17336,227.113179 133.015896,222.463313 127.904386,222.463313 L14.2868005,222.463313 C9.17624611,222.463313 5.01782642,227.113179 5.01782642,232.829475 L5.01782642,288.752091 Z M127.904386,310.891033 L14.2868005,310.891033 C6.40874611,310.891033 0,303.953502 0,295.425881 L0,232.829475 C0,224.301854 6.40874611,217.363368 14.2868005,217.363368 L127.904386,217.363368 C135.78244,217.363368 142.191187,224.301854 142.191187,232.829475 L142.191187,295.425881 C142.191187,303.953502 135.78244,310.891033 127.904386,310.891033 L127.904386,310.891033 Z" id="Fill-8" fill="#15484E" mask="url(#mask-2)"></path>
                            <path d="M301.211928,266.486256 C300.850575,266.457588 300.486355,266.437521 300.125959,266.407898 L300.342005,263.764756 C300.631661,263.788645 300.922272,263.802979 301.211928,263.826869 L301.211928,152.26066 C300.812337,152.291238 300.410834,152.314172 300.0122,152.347618 L299.796153,149.70352 C300.266485,149.665297 300.74064,149.63854 301.211928,149.601273 L301.211928,143.68717 C301.033163,143.70246 300.851531,143.712971 300.672767,143.726349 L300.455765,141.084163 C300.707182,141.06314 300.960511,141.048806 301.211928,141.028739 L301.211928,64.4884637 L298.570614,64.4884637 L298.570614,302.471595 L301.211928,302.471595 L301.211928,266.486256 Z" id="Fill-15" fill="#15484E" mask="url(#mask-2)"></path>
                            <path d="M299.566054,65.4835097 L299.566054,140.158487 L300.217062,140.10593 L300.217062,65.4835097 L299.566054,65.4835097 Z M299.566054,142.408883 L299.566054,148.72433 L300.217062,148.675595 L300.217062,144.759617 L299.761069,144.794973 L299.566054,142.408883 Z M299.566054,262.705293 L300.217062,262.756894 L300.217062,153.330242 L299.566054,153.381843 L299.566054,262.705293 Z M299.566054,301.477106 L300.217062,301.477106 L300.217062,267.411533 L299.566054,267.359932 L299.566054,301.477106 Z M302.207367,303.466636 L297.575748,303.466636 L297.575748,63.4939862 L302.207367,63.4939862 L302.207367,141.945425 L301.529593,142.000849 L301.583126,142.65829 L302.207367,142.606689 L302.207367,150.51987 L300.869025,150.623073 L300.923515,151.284336 L302.207367,151.186867 L302.207367,264.904091 L301.254277,264.827644 L301.199787,265.487952 L302.207367,265.568221 L302.207367,303.466636 Z" id="Fill-16" fill="#15484E" mask="url(#mask-2)"></path>
                            <path d="M332.90138,49.9207916 C309.800642,49.9207916 298.570997,53.1726401 298.570997,59.8626756 L298.570997,63.8455449 L301.21231,63.8455449 L301.21231,57.2051997 L301.2668,57.2051997 L301.2668,59.5100655 C301.614769,57.1717543 305.758849,52.5782675 332.90138,52.5782675 C360.086929,52.5782675 364.198507,57.1870436 364.535004,59.5215325 L364.535004,57.2051997 L364.589494,57.2051997 L364.589494,63.0581446 L367.228896,63.0581446 L367.228896,59.8626756 C367.228896,53.1726401 356.000206,49.9207916 332.90138,49.9207916" id="Fill-17" fill="#15484E" mask="url(#mask-2)"></path>
                            <path d="M301.365933,56.2104403 L302.207176,56.2104403 L302.219604,56.4292687 C305.56737,53.8339057 313.937744,51.5835081 332.901093,51.5835081 C351.781275,51.5835081 360.164075,53.8138385 363.539565,56.3958233 L363.539565,56.2104403 L364.434342,56.2104403 C360.456598,52.6929398 349.898036,50.9155557 332.901093,50.9155557 C315.90415,50.9155557 305.344632,52.6929398 301.365933,56.2104403 L301.365933,56.2104403 Z M365.585316,62.0633854 L366.233456,62.0633854 L366.233456,59.8626781 C366.233456,59.0380101 366.017409,58.2687659 365.585316,57.5568567 L365.585316,62.0633854 Z M299.565863,62.850785 L300.21687,62.850785 L300.21687,57.5539896 C299.783821,58.2668544 299.565863,59.0370541 299.565863,59.8626776 L299.565863,62.850785 Z M302.207176,64.840309 L297.575557,64.840309 L297.575557,59.8626779 C297.575557,52.4014871 308.800422,48.9260323 332.901093,48.9260323 C356.999852,48.9260323 368.223762,52.4014871 368.223762,59.8626779 L368.223762,64.0529087 L363.59501,64.0529087 L363.59501,59.6591388 L363.55008,59.6629611 C363.403819,58.646221 361.237617,53.5730317 332.901093,53.5730317 C304.591337,53.5730317 302.402192,58.6404875 302.25115,59.6562721 L302.207176,59.6534053 L302.207176,64.840309 Z" id="Fill-18" fill="#15484E" mask="url(#mask-2)"></path>
                            <polygon id="Fill-19" fill="#15484E" mask="url(#mask-2)" points="298.57071 64.4884613 301.212023 64.4884613 301.212023 63.8453541 298.57071 63.8453541"></polygon>
                            <polygon id="Fill-20" fill="#15484E" mask="url(#mask-2)" points="297.575557 65.4832257 302.207176 65.4832257 302.207176 62.8505951 297.575557 62.8505951"></polygon>
                            <path d="M364.589876,140.983915 C365.060208,141.020227 365.533408,141.044117 366.003739,141.083296 L365.787692,143.726438 C365.390014,143.693948 364.988511,143.672925 364.589876,143.642346 L364.589876,149.650095 C364.840338,149.671118 365.092711,149.683541 365.343172,149.703608 L365.127125,152.347706 C364.948361,152.332416 364.768641,152.323816 364.589876,152.309482 L364.589876,263.827908 C364.878576,263.804974 365.169187,263.788729 365.457887,263.764839 L365.673933,266.407982 C365.313537,266.437605 364.950273,266.458627 364.589876,266.487295 L364.589876,301.979552 C365.465534,302.017775 366.343104,301.991974 367.229278,301.979552 L367.229278,64.4885551 L364.589876,64.4885551 L364.589876,140.983915 Z" id="Fill-21" fill="#15484E" mask="url(#mask-2)"></path>
                            <path d="M365.585029,140.055378 C365.752322,140.066845 365.920571,140.078312 366.086908,140.092646 L366.234125,140.105068 L366.234125,65.4836049 L365.585029,65.4836049 L365.585029,140.055378 Z M365.585029,148.725379 L366.234125,148.778892 L366.234125,144.761622 L365.706436,144.717665 C365.66533,144.714798 365.62518,144.710976 365.585029,144.708109 L365.585029,148.725379 Z M365.585029,153.382892 L365.585029,262.756989 L366.234125,262.704432 L366.234125,151.023558 L366.03911,153.421115 L365.585029,153.382892 Z M365.585029,301.005142 C365.801076,301.003231 366.015211,301.003231 366.234125,301.000364 L366.234125,267.360027 L365.585029,267.411629 L365.585029,301.005142 Z M365.632827,302.994665 C365.272431,302.994665 364.909167,302.988931 364.545902,302.972686 L363.594724,302.930641 L363.594724,265.569265 L364.600392,265.489951 L364.546858,264.828688 L363.594724,264.902268 L363.594724,151.227094 L364.216097,151.279651 L364.26963,150.62221 L363.594724,150.566786 L363.594724,142.568558 L364.876664,142.665072 L364.930198,142.004764 L363.594724,141.905384 L363.594724,63.4940814 L368.224431,63.4940814 L368.224431,302.961219 L366.788581,302.981287 C366.40811,302.987976 366.021902,302.994665 365.632827,302.994665 L365.632827,302.994665 Z" id="Fill-22" fill="#15484E" mask="url(#mask-2)"></path>
                            <polygon id="Fill-23" fill="#15484E" mask="url(#mask-2)" points="364.590163 64.4884627 367.229565 64.4884627 367.229565 63.0579553 364.590163 63.0579553"></polygon>
                            <polygon id="Fill-24" fill="#15484E" mask="url(#mask-2)" points="363.594054 65.4832231 368.223762 65.4832231 368.223762 62.0631922 363.594054 62.0631922"></polygon>
                            <path d="M320.342283,139.964891 C320.382434,139.963936 320.421628,139.962025 320.461778,139.961069 L320.461778,139.745107 C320.429276,139.822509 320.389125,139.896089 320.342283,139.964891" id="Fill-31" fill="#15484E" mask="url(#mask-2)"></path>
                            <path d="M318.558465,141.000836 L319.518247,139.40788 C319.527807,139.39259 319.537366,139.376345 319.545014,139.358189 L320.331768,139.516816 L320.337504,139.744245 L320.331768,139.516816 L320.353755,139.521594 L320.366182,138.969267 L320.420672,139.535928 L321.456931,139.744245 L321.456931,140.93299 L318.558465,141.000836 Z" id="Fill-32" fill="#15484E" mask="url(#mask-2)"></path>
                            <path d="M301.266991,143.683637 C301.256475,143.684593 301.246916,143.684593 301.237356,143.685548 L301.237356,149.598695 C301.246916,149.597739 301.256475,149.597739 301.266991,149.596784 L301.266991,143.683637 Z" id="Fill-33" fill="#15484E" mask="url(#mask-2)"></path>
                            <polygon id="Fill-34" fill="#15484E" mask="url(#mask-2)" points="300.271838 150.686241 300.242203 149.598788 300.242203 142.777838 302.232509 142.596277 302.262144 143.683731 302.262144 150.505636"></polygon>
                            <path d="M301.237069,266.48816 L301.237069,302.883443 L301.212215,302.883443 L301.212215,304.053077 C301.22751,304.062633 301.248541,304.0741 301.266704,304.085567 L301.266704,266.490071 C301.257145,266.489115 301.247585,266.489115 301.237069,266.48816" id="Fill-35" fill="#15484E" mask="url(#mask-2)"></path>
                            <polygon id="Fill-36" fill="#15484E" mask="url(#mask-2)" points="302.262144 305.842515 300.216392 304.593568 300.242203 265.399383 302.243981 265.541765 302.262144 266.489703"></polygon>
                            <path d="M301.266991,152.255878 C301.256475,152.256833 301.246916,152.257789 301.237356,152.258745 L301.237356,263.828776 C301.246916,263.828776 301.256475,263.829731 301.266991,263.830687 L301.266991,152.255878 Z" id="Fill-37" fill="#15484E" mask="url(#mask-2)"></path>
                            <polygon id="Fill-38" fill="#15484E" mask="url(#mask-2)" points="302.262144 264.918991 300.271838 264.738386 300.242203 263.828671 300.242203 151.350841 302.232509 151.16928 302.262144 152.255778"></polygon>
                            <path d="M301.237069,63.8458347 L301.237069,63.8458347 L301.237069,141.027307 C301.247585,141.026351 301.257145,141.026351 301.266704,141.025395 L301.266704,59.5103553 C301.248541,59.6336255 301.237069,59.7530734 301.237069,59.8629654 L301.237069,63.8458347 Z" id="Fill-39" fill="#15484E" mask="url(#mask-2)"></path>
                            <path d="M300.271838,142.113992 L300.242203,141.026539 L300.242203,59.8631564 C300.242203,59.7064408 300.256543,59.5363471 300.28331,59.3605198 L302.262144,59.5105463 L302.262144,141.933387 L300.271838,142.113992 Z" id="Fill-40" fill="#15484E" mask="url(#mask-2)"></path>
                            <path d="M301.237069,266.488151 C301.228466,266.487196 301.219862,266.48624 301.212215,266.48624 L301.212215,302.471579 L301.212215,302.883436 L301.237069,302.883436 L301.237069,266.488151 Z" id="Fill-41" fill="#15484E" mask="url(#mask-2)"></path>
                            <polygon id="Fill-42" fill="#15484E" mask="url(#mask-2)" points="302.232222 303.878123 300.241917 303.878123 300.217062 302.471505 300.217062 265.491405 301.347005 265.500005 302.232222 265.597474"></polygon>
                            <path d="M301.237069,63.8458343 L301.237069,63.8458343 L301.237069,64.4889416 L301.212215,64.4889416 L301.212215,141.029215 C301.219862,141.028259 301.228466,141.028259 301.237069,141.027304 L301.237069,63.8458343 Z" id="Fill-43" fill="#15484E" mask="url(#mask-2)"></path>
                            <polygon id="Fill-44" fill="#15484E" mask="url(#mask-2)" points="300.241917 142.138266 300.217062 141.028834 300.217062 63.4937958 301.212215 63.4937958 301.220818 63.8454502 302.232222 63.8454502 302.232222 141.917526"></polygon>
                            <path d="M301.237069,152.258651 C301.228466,152.258651 301.219862,152.259606 301.212215,152.260562 L301.212215,263.826765 C301.219862,263.826765 301.228466,263.82772 301.237069,263.828676 L301.237069,152.258651 Z" id="Fill-45" fill="#15484E" mask="url(#mask-2)"></path>
                            <polygon id="Fill-46" fill="#15484E" mask="url(#mask-2)" points="302.232222 264.940023 301.127134 264.816753 300.131981 264.816753 300.217062 263.826769 300.217062 151.369961 301.237069 151.263891 302.232222 151.263891"></polygon>
                            <path d="M301.237069,143.685541 C301.228466,143.686497 301.219862,143.687453 301.212215,143.687453 L301.212215,149.600599 C301.219862,149.599644 301.228466,149.599644 301.237069,149.598688 L301.237069,143.685541 Z" id="Fill-47" fill="#15484E" mask="url(#mask-2)"></path>
                            <polygon id="Fill-48" fill="#15484E" mask="url(#mask-2)" points="300.241917 150.710515 300.217062 149.601083 300.217062 142.69222 301.212215 142.69222 302.317303 142.569905 302.232222 143.68507 302.232222 150.489775"></polygon>
                            <path d="M301.237069,59.8629642 C301.237069,59.7530722 301.248541,59.6336244 301.266704,59.5103542 L301.266704,57.2054885 L301.212215,57.2054885 L301.212215,63.8458334 L301.237069,63.8458334 L301.237069,59.8629642 Z" id="Fill-49" fill="#15484E" mask="url(#mask-2)"></path>
                            <path d="M302.232222,64.8405937 L300.241917,64.8405937 L300.217062,63.845832 L300.217062,56.2107253 L302.207367,56.2107253 L302.261857,57.205487 L302.251341,59.6594237 C302.23987,59.7301368 302.232222,59.7998943 302.232222,59.8629628 L302.232222,64.8405937 Z" id="Fill-50" fill="#15484E" mask="url(#mask-2)"></path>
                            <polygon id="Fill-51" fill="#15484E" mask="url(#mask-2)" points="301.212023 64.4884613 301.236878 64.4884613 301.236878 63.8453541 301.212023 63.8453541"></polygon>
                            <polygon id="Fill-52" fill="#15484E" mask="url(#mask-2)" points="302.232222 65.4835113 300.217062 65.4835113 300.217062 62.8508807 302.207367 62.8508807"></polygon>
                            <path d="M364.562823,140.9821 L364.562823,63.0581461 L364.562823,59.8626773 C364.562823,59.7566076 364.552307,59.6409821 364.5351,59.5215342 L364.5351,140.980188 C364.543704,140.980188 364.553263,140.981144 364.562823,140.9821" id="Fill-55" fill="#15484E" mask="url(#mask-2)"></path>
                            <path d="M365.557976,142.081308 L364.463403,141.972372 L364.562823,140.982388 L364.462447,141.971416 L363.466338,141.971416 L363.539947,140.980477 L363.539947,59.5218217 L365.518781,59.374662 C365.543636,59.5457113 365.557976,59.7110271 365.557976,59.8629648 L365.557976,142.081308 Z" id="Fill-56" fill="#15484E" mask="url(#mask-2)"></path>
                            <path d="M364.534813,149.646666 C364.544373,149.647622 364.553932,149.647622 364.562536,149.648578 L364.562536,143.640828 L364.534813,143.637961 L364.534813,149.646666 Z" id="Fill-57" fill="#15484E" mask="url(#mask-2)"></path>
                            <polygon id="Fill-58" fill="#15484E" mask="url(#mask-2)" points="365.557976 150.747871 363.56767 150.54911 363.539947 149.64704 363.539947 142.538459 365.530253 142.737221 365.557976 143.641202"></polygon>
                            <path d="M364.534813,263.832309 L364.562536,263.829443 L364.562536,152.307197 C364.553932,152.306241 364.544373,152.306241 364.534813,152.305286 L364.534813,263.832309 Z" id="Fill-59" fill="#15484E" mask="url(#mask-2)"></path>
                            <polygon id="Fill-60" fill="#15484E" mask="url(#mask-2)" points="363.56767 264.928848 363.539947 263.832795 363.539947 151.20589 365.530253 151.404652 365.557976 152.307677 365.557976 264.730087"></polygon>
                            <path d="M364.58806,302.096713 L364.563205,302.096713 L364.563205,266.48883 C364.553646,266.489786 364.544086,266.489786 364.534526,266.490741 L364.534526,304.033679 C364.55269,304.025079 364.572765,304.014567 364.58806,304.005012 L364.58806,302.096713 Z" id="Fill-61" fill="#15484E" mask="url(#mask-2)"></path>
                            <polygon id="Fill-62" fill="#15484E" mask="url(#mask-2)" points="363.550845 305.666093 363.539374 304.033958 363.539374 265.590862 365.529679 265.392101 365.558358 266.48911 365.583213 304.556662 365.004858 304.910227"></polygon>
                            <path d="M364.562823,63.0582429 L364.58959,63.0582429 L364.58959,57.205298 L364.5351,57.205298 L364.5351,59.5216308 C364.552307,59.6410787 364.562823,59.7567042 364.562823,59.8627739 L364.562823,63.0582429 Z" id="Fill-63" fill="#15484E" mask="url(#mask-2)"></path>
                            <path d="M365.585029,64.0530032 L363.594724,64.0530032 L363.567957,63.0582415 L363.567957,59.8627725 C363.567957,59.8025707 363.561265,59.7356799 363.550749,59.666878 L363.539278,59.5216294 L363.539278,56.2105348 L365.529584,56.2105348 L365.585029,57.2052966 L365.585029,64.0530032 Z" id="Fill-64" fill="#15484E" mask="url(#mask-2)"></path>
                            <path d="M364.562823,263.829529 C364.571426,263.829529 364.580986,263.828573 364.58959,263.827618 L364.58959,152.309193 C364.580986,152.308237 364.571426,152.308237 364.562823,152.307282 L364.562823,263.829529 Z" id="Fill-65" fill="#15484E" mask="url(#mask-2)"></path>
                            <polygon id="Fill-66" fill="#15484E" mask="url(#mask-2)" points="364.562823 264.824296 363.56767 264.824296 363.56767 151.195942 365.557976 151.416681 365.584742 152.309196 365.584742 264.727782"></polygon>
                            <path d="M364.562823,149.648575 C364.571426,149.649531 364.580986,149.649531 364.58959,149.650486 L364.58959,143.642737 C364.580986,143.641781 364.571426,143.640826 364.562823,143.640826 L364.562823,149.648575 Z" id="Fill-67" fill="#15484E" mask="url(#mask-2)"></path>
                            <polygon id="Fill-68" fill="#15484E" mask="url(#mask-2)" points="365.585029 150.749683 363.594724 150.550922 363.567957 149.648852 363.567957 142.646341 364.689296 142.652074 365.585029 142.741899"></polygon>
                            <path d="M364.562823,63.058241 L364.562823,63.058241 L364.562823,140.982196 C364.571426,140.982196 364.580986,140.983151 364.58959,140.984107 L364.58959,64.4887484 L364.562823,64.4887484 L364.562823,63.058241 Z" id="Fill-69" fill="#15484E" mask="url(#mask-2)"></path>
                            <polygon id="Fill-70" fill="#15484E" mask="url(#mask-2)" points="365.585029 142.083221 364.490457 141.974284 363.495304 141.974284 363.567957 140.982389 363.567957 63.0584314 365.558262 63.0584314"></polygon>
                            <path d="M364.562823,302.096703 L364.587678,302.096703 L364.587678,301.979166 L364.58959,301.979166 L364.58959,266.48691 C364.580986,266.487866 364.571426,266.487866 364.562823,266.488822 L364.562823,302.096703 Z" id="Fill-71" fill="#15484E" mask="url(#mask-2)"></path>
                            <polygon id="Fill-72" fill="#15484E" mask="url(#mask-2)" points="365.567344 303.091462 363.59329 303.091462 363.567479 302.096701 363.567479 265.59917 365.557784 265.377475 365.585507 266.486907"></polygon>
                            <polygon id="Fill-73" fill="#15484E" mask="url(#mask-2)" points="364.56244 64.4884627 364.589207 64.4884627 364.589207 63.0579553 364.56244 63.0579553"></polygon>
                            <polygon id="Fill-74" fill="#15484E" mask="url(#mask-2)" points="365.585029 65.4835125 363.594724 65.4835125 363.567957 62.0634816 365.558262 62.0634816"></polygon>
                            <path d="M351.653654,105.728167 C351.42996,105.911639 351.153688,106.014841 350.869768,106.026308 C354.708898,106.751596 354.790154,107.586775 354.790154,107.648888 L354.790154,140.3432 C355.675372,140.390023 356.560589,140.426335 357.444851,140.478892 L357.444851,107.648888 C357.444851,105.946995 356.270934,104.546111 352.137369,103.603906 L352.137369,104.704737 C352.137369,105.100349 351.959561,105.475893 351.653654,105.728167" id="Fill-79" fill="#15484E" mask="url(#mask-2)"></path>
                            <path d="M355.785594,139.396601 L355.915604,139.40329 C356.093412,139.41189 356.271221,139.420491 356.449029,139.429091 L356.449029,107.648316 C356.449029,107.096944 356.449029,105.880487 353.125161,104.888592 C353.107954,105.097865 353.06398,105.30236 352.993239,105.497299 C354.474975,105.927311 355.785594,106.583796 355.785594,107.648316 L355.785594,139.396601 Z M358.439335,141.535195 L357.384912,141.472126 C356.862959,141.440592 356.341006,141.414791 355.819052,141.389946 L353.795288,141.285788 L353.795288,107.961747 C353.534311,107.788786 352.756161,107.395086 350.684599,107.004253 L350.827037,105.032886 C350.898734,105.030019 350.967563,105.004218 351.022052,104.960261 C351.098529,104.896237 351.142503,104.803546 351.142503,104.704165 L351.142503,102.357254 L352.358482,102.634373 C354.969205,103.228745 358.439335,104.395512 358.439335,107.648316 L358.439335,141.535195 Z" id="Fill-80" fill="#15484E" mask="url(#mask-2)"></path>
                            <path d="M349.484106,103.131083 L349.484106,103.124394 C349.071132,103.066103 348.634259,103.009724 348.182091,102.956211 C348.630435,103.01259 349.070176,103.069925 349.484106,103.131083" id="Fill-81" fill="#15484E" mask="url(#mask-2)"></path>
                            <path d="M350.479259,104.277978 L349.337845,104.114573 C348.931562,104.054371 348.499469,103.998947 348.058772,103.943524 L348.297762,101.968334 C348.758534,102.022802 349.20401,102.080137 349.623676,102.140339 L350.479259,102.261698 L350.479259,104.277978 Z" id="Fill-82" fill="#15484E" mask="url(#mask-2)"></path>
                            <path d="M347.475064,105.543357 C343.851025,105.125767 338.967033,104.914583 332.888092,104.914583 C326.832095,104.914583 321.962442,105.124811 318.344139,105.54049 C321.567631,105.19648 326.205942,104.948984 332.889048,104.948984 C339.597009,104.948984 344.246792,105.197436 347.475064,105.543357" id="Fill-83" fill="#15484E" mask="url(#mask-2)"></path>
                            <path d="M347.368666,106.532579 C343.725508,106.141746 338.854899,105.94394 332.889717,105.94394 C326.948435,105.94394 322.09121,106.14079 318.449963,106.529713 L318.231049,104.552612 C321.879943,104.132155 326.810777,103.920016 332.888761,103.920016 C338.986821,103.920016 343.932951,104.133111 347.588536,104.555478 L347.368666,106.532579 Z" id="Fill-84" fill="#15484E" mask="url(#mask-2)"></path>
                            <path d="M316.315882,103.131087 C316.742239,103.067063 317.196319,103.007817 317.661871,102.951438 C317.192496,103.00495 316.741283,103.063241 316.315882,103.123443 L316.315882,103.131087 Z" id="Fill-85" fill="#15484E" mask="url(#mask-2)"></path>
                            <path d="M315.320729,104.28734 L315.320729,102.260549 L316.176312,102.13919 C316.610317,102.077077 317.069177,102.017831 317.548112,101.962408 L317.782322,103.938553 C317.327286,103.993977 316.882765,104.051312 316.464055,104.11438 L315.320729,104.28734 Z" id="Fill-86" fill="#15484E" mask="url(#mask-2)"></path>
                            <path d="M311.008591,107.648606 C311.008591,107.587449 311.089847,106.749403 314.946184,106.02316 C314.656529,106.013604 314.374521,105.916135 314.145091,105.727885 C313.84014,105.476566 313.662332,105.100067 313.662332,104.704456 L313.662332,103.603624 C309.528767,104.544873 308.355806,105.945758 308.355806,107.648606 L308.355806,140.518744 C309.238156,140.464276 310.124329,140.425097 311.008591,140.375407 L311.008591,107.648606 Z" id="Fill-87" fill="#15484E" mask="url(#mask-2)"></path>
                            <path d="M312.675018,104.887347 C309.350194,105.879242 309.350194,107.09761 309.350194,107.648982 L309.350194,139.467023 C309.538518,139.456512 309.726842,139.446956 309.91421,139.4374 L310.013629,139.431667 L310.013629,107.648982 C310.013629,106.583507 311.323292,105.927021 312.80694,105.497009 C312.735243,105.30207 312.691269,105.097576 312.675018,104.887347 L312.675018,104.887347 Z M307.359888,141.577907 L307.359888,107.648982 C307.359888,104.394267 310.830974,103.228456 313.441697,102.634083 L314.657676,102.356964 L314.657676,104.704831 C314.657676,104.802301 314.702606,104.898814 314.779083,104.960927 C314.843132,105.013484 314.923432,105.026863 314.977922,105.028774 L315.129919,107.000141 C313.046886,107.392886 312.264912,107.787541 312.003935,107.962413 L312.003935,141.316077 L310.017453,141.424058 C309.483072,141.45177 308.950603,141.478526 308.417178,141.511972 L307.359888,141.577907 Z" id="Fill-88" fill="#15484E" mask="url(#mask-2)"></path>
                            <path d="M318.268809,102.881006 C318.221967,102.886739 318.174169,102.891517 318.128283,102.896295 C318.173213,102.891517 318.222923,102.886739 318.268809,102.881006" id="Fill-89" fill="#15484E" mask="url(#mask-2)"></path>
                            <polygon id="Fill-90" fill="#15484E" mask="url(#mask-2)" points="318.238027 103.884183 318.026761 101.907082 318.029628 101.919505 318.028673 101.906126 318.150079 101.893704 318.390025 103.867938"></polygon>
                            <path d="M318.127901,102.895919 C317.971124,102.91503 317.814347,102.932231 317.662349,102.951343 C317.817215,102.932231 317.9673,102.914075 318.127901,102.895919" id="Fill-91" fill="#15484E" mask="url(#mask-2)"></path>
                            <polygon id="Fill-92" fill="#15484E" mask="url(#mask-2)" points="317.780601 103.938265 317.540656 101.964031 318.018635 101.907652 318.245197 103.882842"></polygon>
                            <path d="M316.315882,68.1571354 C317.403762,67.4595599 321.434084,65.5417051 332.888379,65.5417051 C344.44305,65.5417051 348.453296,67.4882274 349.483819,68.1456684 L349.483819,103.124779 C350.478972,103.268116 351.362278,103.427698 352.13756,103.604481 L352.13756,67.5245395 C352.13756,67.2206642 352.032405,66.9244335 351.840257,66.6884045 C351.324996,66.0538975 347.989656,62.8890071 332.888379,62.8890071 C317.805265,62.8890071 314.472794,66.0548531 313.958488,66.6893601 C313.767296,66.9253891 313.663097,67.2206642 313.663097,67.5245395 L313.663097,103.603526 C314.437423,103.426743 315.320729,103.26716 316.315882,103.123823 L316.315882,68.1571354 Z" id="Fill-93" fill="#15484E" mask="url(#mask-2)"></path>
                            <path d="M350.479259,102.271634 C350.705821,102.308902 350.927604,102.347126 351.141738,102.386304 L351.141738,67.5247322 C351.141738,67.4482856 351.115927,67.3737501 351.06813,67.3164151 C350.95437,67.1749889 348.10657,63.8839617 332.888666,63.8839617 C317.687969,63.8839617 314.845904,67.1749889 314.731189,67.3154596 C314.684347,67.3737501 314.65758,67.4492412 314.65758,67.5247322 L314.65758,102.385349 C314.872671,102.34617 315.093497,102.307947 315.321016,102.270679 L315.321016,67.6136014 L315.777964,67.3202375 C317.078067,66.4869693 321.345466,64.5461806 332.888666,64.5461806 C344.446205,64.5461806 348.719339,66.4774134 350.020399,67.3078149 L350.479259,67.6011788 L350.479259,102.271634 Z M353.132044,104.850753 L351.916065,104.573634 C351.173285,104.404495 350.306231,104.24778 349.342624,104.10922 L348.488953,103.98595 L348.488953,68.7268553 C347.021557,67.9862787 342.866961,66.5366595 332.888666,66.5366595 C322.923754,66.5366595 318.77585,67.9929677 317.311321,68.7354556 L317.311321,103.984995 L316.45765,104.108265 C315.493088,104.246824 314.62699,104.40354 313.88421,104.572678 L312.667275,104.849797 L312.667275,67.5247322 C312.667275,66.9943837 312.851775,66.4745466 313.185404,66.0626904 C313.977894,65.0851292 317.741503,61.8944382 332.888666,61.8944382 C348.051124,61.8944382 351.818557,65.0841736 352.612959,66.0607793 C352.947544,66.4716799 353.132044,66.9924725 353.132044,67.5247322 L353.132044,104.850753 Z" id="Fill-94" fill="#15484E" mask="url(#mask-2)"></path>
                            <path d="M350.869481,106.026785 C349.963233,105.855735 348.848585,105.69042 347.474873,105.54326 C348.62967,105.677041 349.659238,105.83089 350.555927,106.006717 C350.660126,106.025829 350.765282,106.031563 350.869481,106.026785" id="Fill-95" fill="#15484E" mask="url(#mask-2)"></path>
                            <path d="M350.802277,107.022502 C350.656016,107.022502 350.51071,107.009124 350.373052,106.984279 C349.505998,106.814185 348.495549,106.662247 347.360827,106.531332 L347.581653,104.554232 C348.885581,104.693747 350.053762,104.860974 351.053695,105.050179 L350.914125,107.020591 C350.875886,107.022502 350.83956,107.022502 350.802277,107.022502" id="Fill-96" fill="#15484E" mask="url(#mask-2)"></path>
                            <path d="M315.244156,106.00624 C316.144669,105.829457 317.180928,105.674653 318.34433,105.540871 C316.971574,105.688031 315.854058,105.852391 314.945897,106.023441 C314.961193,106.024396 314.974576,106.03013 314.988916,106.03013 C315.073996,106.03013 315.159076,106.022485 315.244156,106.00624" id="Fill-97" fill="#15484E" mask="url(#mask-2)"></path>
                            <path d="M314.989298,107.02528 L314.724497,106.991834 L314.850684,106.482509 L314.762736,105.046268 C315.753109,104.858974 316.922246,104.693658 318.237645,104.551276 L318.458472,106.528377 C317.316101,106.660247 316.298961,106.81314 315.435731,106.982278 L315.427127,106.98419 C315.281821,107.010946 315.134604,107.02528 314.989298,107.02528" id="Fill-98" fill="#15484E" mask="url(#mask-2)"></path>
                            <path d="M318.268809,102.881007 C321.826887,102.502596 326.578957,102.29619 332.889239,102.29619 C339.605804,102.29619 344.553846,102.530308 348.181708,102.956498 C344.409496,102.491129 339.37255,102.261789 332.888283,102.261789 C326.778752,102.261789 321.959765,102.467239 318.268809,102.881007" id="Fill-99" fill="#15484E" mask="url(#mask-2)"></path>
                            <path d="M348.066037,103.944858 C344.322504,103.504334 339.359167,103.290284 332.889239,103.290284 C326.783532,103.290284 322.036242,103.480445 318.373965,103.870323 L318.157918,101.893222 C321.917703,101.470854 326.73669,101.266359 332.888283,101.266359 C339.430864,101.266359 344.472589,101.495699 348.304071,101.969668 L348.066037,103.944858 Z" id="Fill-100" fill="#15484E" mask="url(#mask-2)"></path>
                            <path d="M314.145378,105.728172 C314.373852,105.915466 314.656816,106.013891 314.946471,106.023447 C315.853676,105.852397 316.971191,105.688037 318.344904,105.540877 C321.962251,105.124243 326.831904,104.914015 332.887901,104.914015 C338.966841,104.914015 343.850834,105.125199 347.474873,105.543744 C348.848585,105.690904 349.963233,105.85622 350.869481,106.026314 C351.153401,106.014847 351.429673,105.911644 351.653367,105.728172 C351.96023,105.475898 352.137082,105.100354 352.137082,104.704742 L352.137082,103.603911 C351.362756,103.428084 350.47945,103.268501 349.484297,103.124208 L349.484297,103.130898 C349.070367,103.06974 348.630626,103.012405 348.181326,102.956981 C344.554419,102.529836 339.606378,102.295718 332.888857,102.295718 C326.579531,102.295718 321.826505,102.502124 318.268427,102.88149 C318.223497,102.886268 318.173787,102.891046 318.127901,102.895824 C317.9673,102.91398 317.817215,102.932136 317.662349,102.951248 C317.195841,103.007627 316.742717,103.066873 316.31636,103.130898 L316.31636,103.123253 C315.320251,103.267546 314.437901,103.427128 313.662619,103.602955 L313.662619,104.704742 C313.662619,105.100354 313.840427,105.475898 314.145378,105.728172" id="Fill-101" fill="#15484E" mask="url(#mask-2)"></path>
                            <path d="M332.888283,103.919629 C338.987299,103.919629 343.933428,104.13368 347.589014,104.555092 C348.820289,104.687918 349.936848,104.844633 350.902366,105.02046 C350.94634,105.008993 350.987447,104.987971 351.022817,104.959303 C351.098338,104.896235 351.142312,104.803543 351.142312,104.704162 L351.142312,104.411754 C350.792431,104.342952 350.423431,104.277017 350.035312,104.214904 L349.337462,104.114568 C348.93118,104.054366 348.499087,103.998942 348.05839,103.943519 C344.322504,103.50395 339.359167,103.290855 332.889239,103.290855 C326.783532,103.290855 322.035286,103.480061 318.373965,103.869939 L317.780315,103.938741 C317.32719,103.994164 316.882669,104.051499 316.46396,104.114568 L315.363651,104.280839 C315.119882,104.322885 314.884716,104.365886 314.658154,104.410799 L314.658154,104.704162 C314.658154,104.802587 314.703084,104.89719 314.777649,104.960259 C314.817799,104.992748 314.862729,105.009949 314.903835,105.019505 C315.863618,104.843678 316.984001,104.686006 318.238219,104.551269 C321.879465,104.132724 326.811255,103.919629 332.888283,103.919629 L332.888283,103.919629 Z M350.797211,107.025273 L350.685364,107.00425 C349.737053,106.825556 348.621449,106.66693 347.368188,106.532193 C343.781431,106.118425 338.911778,105.909153 332.888283,105.909153 C326.887732,105.909153 322.032418,106.11747 318.458089,106.52837 C317.18762,106.665019 316.070105,106.823645 315.130397,107.000428 L315.02333,107.020495 L314.914351,107.016673 C314.400045,107.001384 313.902947,106.816001 313.513872,106.496836 L313.511004,106.494925 C312.975667,106.051534 312.667848,105.399827 312.667848,104.704163 L312.667848,102.810197 L313.441219,102.633415 C314.237532,102.452809 315.156208,102.285582 316.174304,102.139378 L317.310939,101.975018 L317.310939,101.992218 C317.387416,101.982663 317.463892,101.973107 317.541325,101.963551 L318.163654,101.891882 C321.895716,101.49436 326.712791,101.301332 332.889239,101.301332 C339.437555,101.301332 344.477369,101.519205 348.297379,101.968329 C348.362384,101.976929 348.425478,101.985529 348.488571,101.992218 L348.488571,101.982663 L349.626162,102.140334 C350.643302,102.286538 351.561978,102.453765 352.358291,102.63437 L353.132618,102.811153 L353.132618,104.704163 C353.132618,105.400782 352.823843,106.053446 352.285638,106.49588 C351.899431,106.813134 351.411892,106.999473 350.911926,107.020495 L350.797211,107.025273 Z" id="Fill-102" fill="#15484E" mask="url(#mask-2)"></path>
                            <path d="M332.629697,83.133795 C330.103098,83.133795 328.048743,81.0200458 328.048743,78.4208606 C328.048743,75.8149864 330.103098,73.6935926 332.629697,73.6935926 C335.18115,73.6935926 337.257492,75.8149864 337.257492,78.4208606 C337.257492,81.0200458 335.18115,83.133795 332.629697,83.133795 M332.629697,71.0418502 C328.640482,71.0418502 325.395002,74.3519892 325.395002,78.4208609 C325.395002,82.4820879 328.640482,85.7855378 332.629697,85.7855378 C336.643767,85.7855378 339.910277,82.4820879 339.910277,78.4208609 C339.910277,74.3519892 336.643767,71.0418502 332.629697,71.0418502" id="Fill-103" fill="#15484E" mask="url(#mask-2)"></path>
                            <path d="M332.629697,74.6885469 C330.652774,74.6885469 329.043896,76.362728 329.043896,78.4210535 C329.043896,80.4717342 330.652774,82.1392263 332.629697,82.1392263 C334.633386,82.1392263 336.262339,80.4717342 336.262339,78.4210535 C336.262339,76.362728 334.633386,74.6885469 332.629697,74.6885469 M332.629697,84.1287495 C329.555334,84.1287495 327.05359,81.5677876 327.05359,78.4210535 C327.05359,75.2657191 329.555334,72.6990237 332.629697,72.6990237 C335.72987,72.6990237 338.252645,75.2657191 338.252645,78.4210535 C338.252645,81.5677876 335.72987,84.1287495 332.629697,84.1287495 M332.629697,72.0368048 C329.188246,72.0368048 326.390155,74.9006865 326.390155,78.4210537 C326.390155,81.9337762 329.188246,84.7909689 332.629697,84.7909689 C336.096002,84.7909689 338.915124,81.9337762 338.915124,78.4210537 C338.915124,74.9006865 336.096002,72.0368048 332.629697,72.0368048 M332.629697,86.7804914 C328.091761,86.7804914 324.399849,83.029829 324.399849,78.4210532 C324.399849,73.8036772 328.091761,70.0472813 332.629697,70.0472813 C337.192487,70.0472813 340.90543,73.8036772 340.90543,78.4210532 C340.90543,83.029829 337.192487,86.7804914 332.629697,86.7804914" id="Fill-104" fill="#15484E" mask="url(#mask-2)"></path>
                            <path d="M301.266991,149.597252 L301.266991,152.255683 C310.669799,151.516062 320.196882,151.09465 329.610206,151.024892 C341.210763,150.93889 352.958538,151.37368 364.535196,152.305373 L364.535196,149.646942 C352.95089,148.720982 341.198335,148.290014 329.591087,148.37315 C320.182543,148.442908 310.664063,148.861453 301.266991,149.597252" id="Fill-105" fill="#15484E" mask="url(#mask-2)"></path>
                            <path d="M332.486876,150.020007 C342.779682,150.020007 353.205366,150.42613 363.539278,151.22882 L363.539278,150.565645 C352.255143,149.690331 340.836218,149.292809 329.598926,149.367344 C320.625343,149.434235 311.432845,149.821246 302.262335,150.517866 L302.262335,151.18104 C311.429022,150.483465 320.620563,150.09741 329.602749,150.030519 C330.561576,150.02383 331.525182,150.020007 332.486876,150.020007 L332.486876,150.020007 Z M365.529584,153.383659 L364.45413,153.296701 C352.861221,152.365008 341.136389,151.932129 329.618045,152.020042 C320.331863,152.088844 310.820076,152.501656 301.345571,153.247966 L300.272029,153.332058 L300.272029,148.677413 L301.189749,148.605745 C310.711097,147.86039 320.26399,147.447578 329.58363,147.377821 C341.195659,147.303285 352.974024,147.724697 364.613775,148.655435 L365.529584,148.728059 L365.529584,153.383659 Z" id="Fill-106" fill="#15484E" mask="url(#mask-2)"></path>
                            <path d="M299.795675,149.703615 L300.012678,152.347713 C300.411312,152.314268 300.811859,152.291334 301.21145,152.260755 L301.21145,149.601368 C300.740162,149.638636 300.266007,149.665392 299.795675,149.703615" id="Fill-107" fill="#15484E" mask="url(#mask-2)"></path>
                            <polygon id="Fill-108" fill="#15484E" mask="url(#mask-2)" points="299.102032 153.419591 298.723472 148.792659 302.206985 148.52414 302.206985 153.18165"></polygon>
                            <path d="M365.127603,152.347324 L365.34365,149.703227 C365.093189,149.683159 364.83986,149.670737 364.590354,149.65067 L364.590354,152.309101 C364.768163,152.32439 364.948839,152.332035 365.127603,152.347324" id="Fill-109" fill="#15484E" mask="url(#mask-2)"></path>
                            <polygon id="Fill-110" fill="#15484E" mask="url(#mask-2)" points="366.038727 153.421405 363.594341 153.223599 363.594341 148.570867 366.416331 148.793517"></polygon>
                            <path d="M301.266991,149.597255 C301.256475,149.59821 301.246916,149.59821 301.237356,149.599166 L301.237356,152.258553 C301.246916,152.257597 301.256475,152.256642 301.266991,152.255686 L301.266991,149.597255 Z" id="Fill-111" fill="#15484E" mask="url(#mask-2)"></path>
                            <polygon id="Fill-112" fill="#15484E" mask="url(#mask-2)" points="300.271838 153.344961 300.242203 152.258464 300.242203 148.691273 302.232509 148.509712 302.262144 149.597165 302.262144 153.164356"></polygon>
                            <path d="M301.237069,149.599068 C301.228466,149.600023 301.219862,149.600023 301.212215,149.600979 L301.212215,152.260366 C301.219862,152.25941 301.228466,152.258455 301.237069,152.258455 L301.237069,149.599068 Z" id="Fill-113" fill="#15484E" mask="url(#mask-2)"></path>
                            <polygon id="Fill-114" fill="#15484E" mask="url(#mask-2)" points="300.13179 153.375725 300.21687 152.26056 300.21687 148.71057 302.207176 148.48983 302.232031 149.599262 302.232031 153.25341 301.236878 153.25341"></polygon>
                            <path d="M364.534813,152.305384 C364.544373,152.306339 364.553932,152.306339 364.562536,152.307295 L364.562536,149.648863 C364.553932,149.647908 364.544373,149.647908 364.534813,149.646952 L364.534813,152.305384 Z" id="Fill-115" fill="#15484E" mask="url(#mask-2)"></path>
                            <polygon id="Fill-116" fill="#15484E" mask="url(#mask-2)" points="365.557976 153.406497 363.56767 153.207736 363.539947 152.305666 363.539947 148.547359 365.530253 148.74612 365.557976 149.64819"></polygon>
                            <path d="M364.562823,152.307197 C364.571426,152.308152 364.580986,152.308152 364.58959,152.309108 L364.58959,149.650676 C364.580986,149.649721 364.571426,149.649721 364.562823,149.648765 L364.562823,152.307197 Z" id="Fill-117" fill="#15484E" mask="url(#mask-2)"></path>
                            <polygon id="Fill-118" fill="#15484E" mask="url(#mask-2)" points="365.585029 153.408407 363.594724 153.209646 363.567957 152.307576 363.567957 148.536846 365.558262 148.758541 365.585029 149.6501"></polygon>
                            <path d="M354.790345,142.841855 L354.790345,140.343006 C346.610208,139.904393 338.396612,139.694165 330.249933,139.753411 C326.998718,139.777301 323.731252,139.856614 320.461874,139.960773 L320.461874,142.615382 C323.737944,142.509312 327.011146,142.429043 330.270009,142.405154 C341.651651,142.322974 353.170952,142.742474 364.534431,143.637856 L364.534431,140.98038 C362.177037,140.794997 359.813908,140.622036 357.444086,140.478699 L357.444086,142.841855 L354.790345,142.841855 Z" id="Fill-119" fill="#15484E" mask="url(#mask-2)"></path>
                            <path d="M333.06657,141.400171 C339.931308,141.400171 346.863919,141.580776 353.795575,141.940075 L353.795575,141.286457 C345.773171,140.873645 337.857834,140.691129 330.257963,140.747508 C327.600399,140.767575 324.783189,140.823955 321.456453,140.925246 L321.456453,141.588421 C324.786057,141.487129 327.60709,141.429794 330.261787,141.410682 C331.195759,141.403993 332.130686,141.400171 333.06657,141.400171 L333.06657,141.400171 Z M358.439622,142.208594 C360.140272,142.315619 361.841878,142.434112 363.53966,142.563115 L363.53966,141.899941 C361.624875,141.753737 359.966287,141.635244 358.439622,141.537775 L358.439622,142.208594 Z M365.529966,144.714132 L364.456425,144.630041 C353.062355,143.731793 341.562173,143.323759 330.277083,143.400206 C327.370013,143.421229 324.261235,143.488119 320.493803,143.609478 L319.466147,143.642924 L319.466147,138.997836 L320.429754,138.967257 C324.198142,138.846854 327.315523,138.780918 330.242668,138.757984 C338.179992,138.703516 346.459549,138.900366 354.843305,139.34949 L355.785881,139.400136 L355.785881,141.847384 L356.449316,141.847384 L356.449316,139.42307 L357.503738,139.486139 C359.562873,139.610364 361.821803,139.769947 364.612246,139.98782 L365.529966,140.060444 L365.529966,144.714132 Z" id="Fill-120" fill="#15484E" mask="url(#mask-2)"></path>
                            <path d="M317.808611,142.708452 L317.808611,140.054798 C315.540121,140.141756 313.274499,140.250693 311.008878,140.375874 L311.008878,142.842234 L308.355137,142.842234 L308.355137,140.519212 C305.986272,140.665416 303.623142,140.836465 301.266704,141.024715 L301.266704,143.684102 C306.751994,143.242623 312.280303,142.923458 317.808611,142.708452" id="Fill-121" fill="#15484E" mask="url(#mask-2)"></path>
                            <path d="M312.003744,141.317983 L312.003744,141.977336 C313.595415,141.8942 315.200469,141.818709 316.813171,141.752774 L316.813171,141.089599 C315.210029,141.15649 313.606886,141.231981 312.003744,141.317983 L312.003744,141.317983 Z M302.262526,141.94389 L302.262526,142.60802 C303.938322,142.477105 305.639928,142.357658 307.360653,142.247766 L307.360653,141.578858 C305.713537,141.685883 304.030094,141.806286 302.262526,141.94389 L302.262526,141.94389 Z M300.27222,144.761904 L300.27222,140.106305 L301.188029,140.03368 C303.693596,139.833008 306.017531,139.666736 308.293669,139.526266 L309.350959,139.461286 L309.350959,141.847376 L310.013438,141.847376 L310.013438,139.433574 L310.953145,139.382928 C313.224503,139.256791 315.49586,139.147855 317.770086,139.060897 L318.803477,139.020762 L318.803477,143.664895 L317.846562,143.702163 C312.188244,143.921947 306.637948,144.248756 301.347674,144.674946 L300.27222,144.761904 Z" id="Fill-122" fill="#15484E" mask="url(#mask-2)"></path>
                            <path d="M300.455765,141.083774 L300.672767,143.726916 C300.851531,143.712582 301.033163,143.702071 301.211928,143.687737 L301.211928,141.02835 C300.960511,141.049373 300.707182,141.063707 300.455765,141.083774" id="Fill-123" fill="#15484E" mask="url(#mask-2)"></path>
                            <polygon id="Fill-124" fill="#15484E" mask="url(#mask-2)" points="299.761165 144.79507 299.382605 140.173871 302.207463 139.949309 302.207463 144.602998"></polygon>
                            <path d="M365.787597,143.726538 L366.004599,141.083396 C365.533312,141.044217 365.060112,141.020328 364.589781,140.984015 L364.589781,143.642447 C364.988416,143.673026 365.389918,143.694048 365.787597,143.726538" id="Fill-125" fill="#15484E" mask="url(#mask-2)"></path>
                            <path d="M366.697861,144.799746 L365.706532,144.717565 C365.496221,144.700365 365.283998,144.686987 365.073687,144.672653 L363.594819,144.563717 L363.594819,139.909073 L365.289734,140.036165 C365.556446,140.05241 365.822203,140.070566 366.087003,140.092545 L367.07642,140.174725 L366.697861,144.799746 Z" id="Fill-126" fill="#15484E" mask="url(#mask-2)"></path>
                            <path d="M320.461778,139.961162 C320.421628,139.962118 320.382434,139.964029 320.342283,139.964985 C320.102338,140.320461 319.696055,140.553624 319.235283,140.553624 C318.808926,140.553624 318.43419,140.35104 318.190421,140.041431 C318.062322,140.046209 317.93518,140.050031 317.808993,140.054809 L317.808993,142.708463 C318.693255,142.675017 319.577517,142.643483 320.461778,142.614816 L320.461778,139.961162 Z" id="Fill-127" fill="#15484E" mask="url(#mask-2)"></path>
                            <path d="M318.804051,141.508062 L318.804051,141.676244 C319.024877,141.667644 319.245703,141.659999 319.46653,141.65331 L319.46653,141.537685 C319.244747,141.558707 319.019141,141.54724 318.804051,141.508062 L318.804051,141.508062 Z M316.813745,143.741259 L316.813745,139.096171 L318.659701,139.02928 L318.972299,139.426802 C319.011494,139.475537 319.096574,139.558673 319.235188,139.558673 C319.398657,139.558673 319.487561,139.453559 319.517196,139.408646 L319.804939,138.982456 L321.337341,138.9471 L321.456835,139.960973 L321.456835,143.57881 L320.493229,143.609388 C319.61088,143.6371 318.729486,143.668635 317.84618,143.70208 L316.813745,143.741259 Z" id="Fill-128" fill="#15484E" mask="url(#mask-2)"></path>
                            <path d="M319.235092,140.55371 C319.695864,140.55371 320.102147,140.320548 320.342092,139.965071 C319.624167,139.988005 318.907198,140.014761 318.19023,140.041517 C318.433999,140.351126 318.809691,140.55371 319.235092,140.55371" id="Fill-129" fill="#15484E" mask="url(#mask-2)"></path>
                            <path d="M319.235092,141.548475 C318.520035,141.548475 317.854688,141.222621 317.408255,140.655961 L316.20088,139.121295 L318.152947,139.047715 C318.871828,139.020003 319.590709,138.994202 320.30959,138.971268 L322.255921,138.907244 L321.167084,140.521224 C320.733079,141.164331 320.011331,141.548475 319.235092,141.548475" id="Fill-130" fill="#15484E" mask="url(#mask-2)"></path>
                            <path d="M301.266991,143.683628 L301.266991,141.025197 C301.256475,141.026152 301.246916,141.026152 301.237356,141.027108 L301.237356,143.685539 C301.246916,143.684584 301.256475,143.684584 301.266991,143.683628" id="Fill-131" fill="#15484E" mask="url(#mask-2)"></path>
                            <polygon id="Fill-132" fill="#15484E" mask="url(#mask-2)" points="300.25683 144.727899 300.241534 140.119123 302.23184 139.937563 302.262431 141.025016 302.262431 144.591251"></polygon>
                            <path d="M301.237069,141.026827 C301.228466,141.027782 301.219862,141.027782 301.212215,141.028738 L301.212215,143.687169 C301.219862,143.687169 301.228466,143.686214 301.237069,143.685258 L301.237069,141.026827 Z" id="Fill-133" fill="#15484E" mask="url(#mask-2)"></path>
                            <polygon id="Fill-134" fill="#15484E" mask="url(#mask-2)" points="301.211928 144.682125 300.216775 144.682125 300.216775 140.138329 302.207081 139.917589 302.231935 141.027021 302.231935 144.576055"></polygon>
                            <path d="M364.562823,143.640732 L364.562823,140.982301 C364.553263,140.981345 364.543704,140.980389 364.5351,140.980389 L364.5351,143.637865 L364.562823,143.640732 Z" id="Fill-135" fill="#15484E" mask="url(#mask-2)"></path>
                            <polygon id="Fill-136" fill="#15484E" mask="url(#mask-2)" points="365.557976 144.740031 363.539947 144.538403 363.539947 139.985051 364.662242 139.99174 365.557976 140.081565"></polygon>
                            <path d="M364.562823,143.640725 C364.571426,143.640725 364.580986,143.641681 364.58959,143.642637 L364.58959,140.984205 C364.580986,140.983249 364.571426,140.982294 364.562823,140.982294 L364.562823,143.640725 Z" id="Fill-137" fill="#15484E" mask="url(#mask-2)"></path>
                            <polygon id="Fill-138" fill="#15484E" mask="url(#mask-2)" points="365.585029 144.741844 364.490457 144.632908 363.495304 144.632908 363.567957 143.641013 363.567957 139.986864 364.689296 139.993553 365.585029 140.083378"></polygon>
                            <path d="M311.008591,142.841861 L311.008591,140.375502 C310.124329,140.425192 309.238156,140.464371 308.355806,140.518839 L308.355806,142.841861 L311.008591,142.841861 Z" id="Fill-139" fill="#15484E" mask="url(#mask-2)"></path>
                            <path d="M309.350576,141.847091 L310.013056,141.847091 L310.013056,141.424723 C309.792229,141.435235 309.571403,141.446702 309.350576,141.459124 L309.350576,141.847091 Z M312.003361,143.836614 L307.360271,143.836614 L307.360271,139.585226 L308.294242,139.52598 C308.833403,139.492535 309.373519,139.464823 309.914592,139.438067 L312.003361,139.323397 L312.003361,143.836614 Z" id="Fill-140" fill="#15484E" mask="url(#mask-2)"></path>
                            <path d="M354.790345,142.841854 L357.444086,142.841854 L357.444086,140.478698 C356.560781,140.426141 355.675563,140.390784 354.790345,140.343005 L354.790345,142.841854 Z" id="Fill-141" fill="#15484E" mask="url(#mask-2)"></path>
                            <path d="M355.785594,141.847092 L356.449029,141.847092 L356.449029,141.420902 L355.819052,141.389368 L355.785594,141.389368 L355.785594,141.847092 Z M358.439335,143.836616 L353.795288,143.836616 L353.795288,139.292819 L355.915604,139.402711 C356.445205,139.429468 356.974806,139.454313 357.504407,139.485847 L358.439335,139.542227 L358.439335,143.836616 Z" id="Fill-142" fill="#15484E" mask="url(#mask-2)"></path>
                            <path d="M335.859785,265.086513 C324.367251,265.17156 312.73706,264.743459 301.266513,263.830877 L301.266513,266.490264 C311.768674,267.320666 322.401801,267.749722 332.943155,267.749722 C333.922057,267.749722 334.901915,267.7459 335.87986,267.738255 C345.398339,267.668498 355.030578,267.243263 364.534718,266.49122 L364.534718,263.832788 C355.025798,264.588654 345.384956,265.016755 335.859785,265.086513" id="Fill-143" fill="#15484E" mask="url(#mask-2)"></path>
                            <path d="M302.262144,265.569935 C313.492745,266.43187 324.788351,266.828437 335.871734,266.744346 C344.97724,266.676499 354.279672,266.282799 363.540043,265.57089 L363.540043,264.908671 C354.284452,265.619625 344.981063,266.014281 335.866955,266.081171 C324.770188,266.155707 313.474582,265.76774 302.262144,264.90676 L302.262144,265.569935 Z M332.943633,268.744381 C322.46824,268.744381 311.784447,268.320102 301.188602,267.482056 L300.271838,267.409431 L300.271838,262.753832 L301.346335,262.838879 C312.852253,263.755283 324.463325,264.186251 335.852615,264.091648 C345.270719,264.022846 354.89531,263.601434 364.455851,262.84079 L365.530348,262.755743 L365.530348,267.410387 L364.613584,267.483011 C355.004289,268.2427 345.339548,268.663156 335.88703,268.733869 C334.906216,268.740558 333.924447,268.744381 332.943633,268.744381 L332.943633,268.744381 Z" id="Fill-144" fill="#15484E" mask="url(#mask-2)"></path>
                            <path d="M300.341814,263.765122 L300.125768,266.408264 C300.486164,266.437887 300.850384,266.456998 301.211737,266.486621 L301.211737,263.826279 C300.922081,263.803345 300.63147,263.788056 300.341814,263.765122" id="Fill-145" fill="#15484E" mask="url(#mask-2)"></path>
                            <polygon id="Fill-146" fill="#15484E" mask="url(#mask-2)" points="302.207081 267.564136 299.053373 267.31664 299.430977 262.693531 302.207081 262.909492"></polygon>
                            <path d="M365.673742,266.407898 L365.457696,263.764756 C365.169952,263.788645 364.878385,263.80489 364.589685,263.827824 L364.589685,266.487211 C364.950082,266.458544 365.313346,266.437521 365.673742,266.407898" id="Fill-147" fill="#15484E" mask="url(#mask-2)"></path>
                            <polygon id="Fill-148" fill="#15484E" mask="url(#mask-2)" points="363.594724 267.565092 363.594724 262.907581 366.368915 262.693531 366.746519 267.31664"></polygon>
                            <path d="M301.237069,263.828592 L301.237069,266.487979 C301.247585,266.488935 301.257145,266.488935 301.266704,266.48989 L301.266704,263.830503 C301.257145,263.829547 301.247585,263.828592 301.237069,263.828592" id="Fill-149" fill="#15484E" mask="url(#mask-2)"></path>
                            <polygon id="Fill-150" fill="#15484E" mask="url(#mask-2)" points="302.262144 267.579059 300.271838 267.398453 300.242203 266.487783 300.242203 262.833634 301.355895 262.839368 302.259276 262.922504"></polygon>
                            <path d="M301.237069,263.828583 C301.228466,263.827628 301.219862,263.826672 301.212215,263.826672 L301.212215,266.486059 C301.219862,266.486059 301.228466,266.487015 301.237069,266.48797 L301.237069,263.828583 Z" id="Fill-151" fill="#15484E" mask="url(#mask-2)"></path>
                            <polygon id="Fill-152" fill="#15484E" mask="url(#mask-2)" points="302.232222 267.599605 301.127134 267.476335 300.131981 267.476335 300.217062 266.486351 300.217062 262.832202 301.347005 262.840803 302.232222 262.938272"></polygon>
                            <path d="M364.534813,266.490926 C364.544373,266.489971 364.553932,266.489971 364.562536,266.489015 L364.562536,263.829628 L364.534813,263.832495 L364.534813,266.490926 Z" id="Fill-153" fill="#15484E" mask="url(#mask-2)"></path>
                            <polygon id="Fill-154" fill="#15484E" mask="url(#mask-2)" points="363.56767 267.588428 363.539947 266.491419 363.539947 262.931873 365.530253 262.733112 365.557976 263.829165 365.557976 267.389667"></polygon>
                            <path d="M364.562823,266.489128 C364.571426,266.488173 364.580986,266.488173 364.58959,266.487217 L364.58959,263.82783 C364.580986,263.828786 364.571426,263.829741 364.562823,263.829741 L364.562823,266.489128 Z" id="Fill-155" fill="#15484E" mask="url(#mask-2)"></path>
                            <polygon id="Fill-156" fill="#15484E" mask="url(#mask-2)" points="363.594724 267.586513 363.567957 266.489504 363.567957 262.8344 364.56311 262.8344 365.656726 262.725464 365.585029 263.827251 365.585029 267.387752"></polygon>
                        </g>
                        <g id="Group-160" transform="translate(143.000000, 0.000000)">
                            <mask id="mask-4" fill="white">
                                <use xlink:href="#path-3"></use>
                            </mask>
                            <g id="Clip-159"></g>
                            <path d="M133.368902,40.5105968 C129.094258,74.3879195 121.074741,246.104244 121.004681,247.745935 C120.82713,251.12201 119.61211,251.690581 118.318392,251.802385 C117.636023,251.863542 115.622506,251.943811 109.920741,251.985856 L109.903466,251.985856 L86.9572443,251.985856 L79.7947678,251.956233 C76.1612242,251.9419 73.205251,251.929477 71.4998081,251.929477 C69.787647,251.929477 66.8230362,251.9419 63.1827745,251.957189 L33.0942309,251.985856 C27.3780698,251.943811 25.3635933,251.863542 24.6735463,251.801429 C23.387506,251.690581 22.1724859,251.12201 21.9882174,247.741157 C21.9824591,247.639866 21.946949,246.880177 21.882647,245.538539 C19.9401503,204.816376 13.313204,69.6845408 9.63359329,40.5058189 C8.10282148,28.5380994 6.90507651,21.6550362 6.28125101,18.4136993 L136.727962,18.4136993 C136.09262,21.6617253 134.882399,28.5495664 133.368902,40.5105968 L133.368902,40.5105968 Z M115.634023,288.290342 C111.029231,288.636263 100.071016,289.421752 88.8776671,289.936811 C88.8699893,289.750473 88.8411973,289.569867 88.8277611,289.384484 C88.8076067,289.104499 88.7864926,288.825468 88.752902,288.549305 C88.7173919,288.25403 88.6694054,287.963533 88.6185396,287.67208 C88.570553,287.400694 88.5235262,287.130265 88.4640228,286.863657 C88.4006805,286.576982 88.3219826,286.295085 88.2442443,286.014144 C88.1713047,285.75327 88.1002846,285.492396 88.0158282,285.237255 C87.923694,284.960136 87.8190832,284.690662 87.7144725,284.420232 C87.6175396,284.170825 87.5225262,283.922373 87.415996,283.678699 C87.297949,283.413047 87.1674255,283.155996 87.0378617,282.897033 C86.918855,282.661004 86.8017678,282.424975 86.6731638,282.195635 C86.5311235,281.943361 86.375647,281.700643 86.2211302,281.456969 C86.0819691,281.234319 85.9456872,281.011668 85.7959691,280.796662 C85.6308953,280.559677 85.4514255,280.333204 85.2757946,280.103864 C85.1164792,279.898414 84.9610027,279.690097 84.7930497,279.491336 C84.6049423,279.26964 84.4043584,279.061323 84.2066537,278.85014 C84.0300631,278.660934 83.8573114,278.467906 83.6720832,278.286346 C83.4638215,278.082807 83.2430832,277.894557 83.0261839,277.701529 C82.8323181,277.53048 82.643251,277.354652 82.4426671,277.192203 C82.214251,277.00682 81.9733584,276.838638 81.7363047,276.666633 C81.5290027,276.515651 81.3264993,276.358935 81.1134389,276.215598 C80.8648685,276.051238 80.6038215,275.904078 80.3466134,275.75214 C80.1277946,275.623136 79.915694,275.486488 79.6911168,275.366085 C79.4223919,275.222747 79.1411906,275.099477 78.8638282,274.969518 C78.6382913,274.863448 78.417553,274.748778 78.1862577,274.652264 C77.8944993,274.530905 77.5931436,274.43248 77.2937074,274.327366 C77.0643315,274.246142 76.8397544,274.154406 76.6055799,274.082737 C76.2850295,273.984312 75.9548819,273.910732 75.6266537,273.831419 C75.403996,273.775995 75.1861369,273.71006 74.9596403,273.664192 C74.5901436,273.589656 74.2100899,273.542833 73.8329154,273.493142 C73.6390497,273.466386 73.4499826,273.426252 73.2541973,273.40714 C72.6773987,273.348849 72.0919624,273.318271 71.4998081,273.318271 C70.9076537,273.318271 70.3231772,273.348849 69.7454188,273.40714 C69.551553,273.426252 69.3644054,273.466386 69.1714993,273.492187 C68.7914456,273.542833 68.4094725,273.589656 68.0390161,273.664192 C67.8173181,273.709104 67.6061772,273.774084 67.3883181,273.827596 C67.0533718,273.908821 66.7174658,273.983356 66.391157,274.083693 C66.1627409,274.15345 65.9439221,274.24423 65.7203047,274.323544 C65.4141503,274.430569 65.1070362,274.530905 64.8095195,274.655131 C64.5839826,274.749734 64.3690027,274.861537 64.1482644,274.965696 C63.8651436,275.097566 63.5781839,275.223703 63.3037007,275.369907 C63.0858416,275.487444 62.8785396,275.621225 62.6654792,275.746407 C62.4025128,275.902167 62.1357074,276.052193 61.8813785,276.221331 C61.6731168,276.359891 61.4763718,276.51374 61.2748282,276.660899 C61.0310564,276.837682 60.7853651,277.009687 60.5521503,277.198893 C60.3554054,277.357519 60.1711369,277.531435 59.9820698,277.698662 C59.7603718,277.895512 59.5348349,278.087585 59.3227342,278.294946 C59.1403852,278.47364 58.9705128,278.664757 58.7968013,278.85014 C58.5962174,279.065146 58.3927544,279.27633 58.2036872,279.500891 C58.036694,279.697742 57.8840966,279.904147 57.7267007,280.108642 C57.5481906,280.339893 57.3677611,280.568277 57.2007678,280.808129 C57.0520094,281.021224 56.9186067,281.243874 56.7784859,281.463659 C56.6239691,281.710199 56.4675329,281.953872 56.3254926,282.209013 C56.1968886,282.437397 56.0817208,282.673426 55.9636738,282.9085 C55.8331503,283.168418 55.7007074,283.426426 55.5826604,283.693033 C55.4761302,283.935751 55.3830362,284.185158 55.2870631,284.43361 C55.1814926,284.704995 55.0759221,284.975425 54.9847477,285.2535 C54.9002913,285.509596 54.8302309,285.77047 54.7572913,286.0323 C54.679553,286.313241 54.6018148,286.594183 54.5375128,286.880857 C54.4780094,287.148421 54.4319423,287.419806 54.3849154,287.691192 C54.3350094,287.982644 54.2860631,288.273142 54.250553,288.570328 C54.2169624,288.845536 54.1977678,289.124566 54.1776134,289.404552 C54.1641772,289.597579 54.1344255,289.785829 54.1277074,289.980768 C42.903647,289.469531 31.9607879,288.657286 27.3684725,288.297031 L27.0181705,257.034184 L33.0568013,257.034184 C35.7066201,257.05234 38.8593383,257.061896 42.6483584,257.061896 L42.6512376,257.061896 C46.4373785,257.061896 50.8598215,257.05234 56.0510094,257.034184 L86.9380497,257.034184 C92.1301973,257.05234 96.5526403,257.061896 100.340701,257.061896 L100.34262,257.061896 C101.347459,257.061896 102.305271,257.060941 103.221815,257.059985 C105.766063,257.056163 107.990721,257.048518 109.938976,257.034184 L109.939936,257.034184 L115.981446,257.034184 L115.634023,288.290342 Z M72.7282644,278.427798 C72.8808617,278.442132 73.0257812,278.47271 73.1754993,278.493733 C73.4259893,278.528134 73.6783987,278.555846 73.9240899,278.604581 C74.0987611,278.639937 74.2676738,278.692494 74.4404255,278.73454 C74.6534859,278.787097 74.8703852,278.831054 75.078647,278.894122 C75.2427611,278.944768 75.3991973,279.009748 75.5604322,279.066127 C75.7696537,279.138751 75.9836738,279.205642 76.1880966,279.289734 C76.3550899,279.35758 76.5124859,279.441671 76.6756403,279.517162 C76.8656671,279.605076 77.0604926,279.6863 77.2447611,279.784726 C77.4175128,279.87455 77.5806671,279.981576 77.7476604,280.079045 C77.913694,280.17747 78.0845262,280.267295 78.2448013,280.373365 C78.4089154,280.479434 78.5624725,280.601749 78.7208282,280.715463 C78.875345,280.827266 79.0346604,280.932381 79.1824591,281.049917 C79.3417745,281.17701 79.4886134,281.316525 79.6412107,281.451262 C79.7774926,281.57071 79.9195329,281.683469 80.0500564,281.809606 C80.1997745,281.952943 80.3360564,282.108703 80.4790564,282.259685 C80.5999826,282.388689 80.7276268,282.511959 80.8437544,282.645741 C80.9819557,282.806279 81.1057611,282.977328 81.2362846,283.144555 C81.341855,283.281203 81.4551034,283.411162 81.5558752,283.552589 C81.6825597,283.728416 81.7929289,283.917621 81.9090564,284.100138 C81.9992711,284.24252 82.0971638,284.378212 82.1816201,284.524416 C82.2871906,284.707888 82.3774054,284.899961 82.4743383,285.089166 C82.5549557,285.244926 82.6422913,285.396864 82.7161906,285.557402 C82.8025664,285.746607 82.8726268,285.945368 82.9503651,286.139352 C83.0165866,286.307534 83.0914456,286.470939 83.1519087,286.641033 C83.2171705,286.832149 83.265157,287.029955 83.3227409,287.223938 C83.3755262,287.40741 83.4388685,287.588015 83.4830161,287.776265 C83.5271638,287.960692 83.554996,288.152765 83.590506,288.34197 C83.629855,288.544554 83.6768819,288.74427 83.7047141,288.950676 C83.7296671,289.133193 83.737345,289.319531 83.7546201,289.502048 C83.7738148,289.718009 83.801647,289.931104 83.8093248,290.148022 C83.5482779,290.158533 83.2929893,290.167133 83.0348215,290.176689 C82.4369087,290.197712 81.8466738,290.217779 81.266996,290.236891 C80.9138148,290.248358 80.5587141,290.259825 80.2112913,290.270336 C79.9435262,290.278936 79.6834389,290.285626 79.4195128,290.29327 C79.0788081,290.30187 78.7381034,290.312382 78.4041168,290.320982 C78.1555463,290.327671 77.9108148,290.333405 77.6660832,290.338183 C77.3234591,290.346783 76.9837141,290.354427 76.6478081,290.361117 C76.4203517,290.36685 76.193855,290.370672 75.9692779,290.37545 C75.6276134,290.381184 75.2897879,290.386917 74.9567611,290.392651 C74.7475396,290.395518 74.5373584,290.39934 74.3319758,290.402207 C73.9682376,290.406985 73.6121772,290.410807 73.258996,290.414629 C73.0996805,290.415585 72.9365262,290.417496 72.7791302,290.418452 C72.268553,290.422274 71.7675732,290.425141 71.2829087,290.426096 C67.8393919,290.423229 63.8670631,290.341049 59.1941302,290.176689 C59.4350228,283.624257 64.8623047,278.366641 71.4998081,278.366641 C71.9144121,278.366641 72.3251772,278.387663 72.7282644,278.427798 L72.7282644,278.427798 Z M115.483345,302.358459 C115.484305,302.363237 115.432479,302.980543 114.89407,303.580649 C114.282721,304.261024 112.908385,305.105759 109.824768,305.256741 L107.583795,305.371411 C99.0268282,305.809068 86.0963651,306.471287 71.4998081,306.471287 C56.8955732,306.471287 43.9411168,305.808113 35.3697544,305.3695 L33.1479758,305.256741 C27.7072577,304.988223 27.5249087,302.555309 27.5181906,302.36037 L27.5258685,302.355592 L27.4250966,293.365469 C32.3869087,293.751524 43.3806336,294.556125 54.5586268,295.053028 L54.5807007,295.053983 C60.2181638,295.305302 65.901694,295.476351 70.8798215,295.476351 L71.2617946,295.47444 L71.4998081,295.476351 C75.5086067,295.476351 80.3562107,295.365503 86.3209423,295.136164 L88.5715128,295.032961 L88.5743919,295.003338 C99.6717678,294.502612 110.630942,293.726679 115.577399,293.357824 L115.477587,302.264811 L115.483345,302.358459 Z M5.78411007,13.3643991 L137.210707,13.3643991 L137.210707,5.8143393 L5.78411007,5.8143393 L5.78411007,13.3643991 Z M142.280969,3.29064507 C142.280969,1.89644968 141.146566,0.765995166 139.746318,0.765995166 L3.24849933,0.765995166 C1.84825101,0.765995166 0.712888591,1.89644968 0.712888591,3.29064507 L0.712888591,15.8890494 C0.712888591,15.9406509 0.725365101,15.98843 0.728244295,16.0390759 C0.73112349,16.0839883 0.724405369,16.1269896 0.729204027,16.171902 L0.819418792,16.9659913 C0.829975839,17.0625052 0.846291275,17.159019 0.868365101,17.2526662 C0.883720805,17.3176458 2.4077745,23.9780583 4.60364027,41.1393708 C8.25925772,70.1336658 14.8766067,205.102099 16.8181436,245.777439 C16.8834054,247.141056 16.9198752,247.913167 16.9256336,248.014459 C17.2125933,253.286409 19.6522309,255.450804 21.9402309,256.316562 L22.4536872,302.185495 C22.4431302,302.803757 22.5477409,304.965286 24.324204,306.947164 C26.1448148,308.980645 29.0297678,310.108233 32.8946067,310.299349 L35.1087074,310.411152 C43.732855,310.852632 56.7660094,311.519628 71.4998081,311.519628 C86.2268886,311.519628 99.2360497,310.853587 107.843882,310.413063 L110.078137,310.299349 C113.956412,310.108233 116.850003,308.978734 118.675412,306.942387 C120.452835,304.962419 120.558405,302.801846 120.549768,302.186451 L121.060345,256.292673 C123.246613,255.434559 125.789902,253.299787 126.070144,247.987702 C126.142123,246.324988 134.227862,74.2073155 138.399815,41.1403264 C140.570728,23.9885697 142.131251,17.3319795 142.146607,17.2669999 C142.176358,17.1437297 142.196513,17.0166372 142.20707,16.8905003 L142.272332,16.0964109 C142.275211,16.0620099 142.268493,16.0285645 142.270412,15.9951191 C142.271372,15.9597626 142.280969,15.9253616 142.280969,15.8890494 L142.280969,3.29064507 Z" id="Fill-158" fill="#15484E" mask="url(#mask-4)"></path>
                        </g>
                    </g>
                </g>
            </g>
        </g>
    </g>
</svg>