<?xml version="1.0" encoding="UTF-8"?>
<svg width="37px" height="48px" viewBox="0 0 37 48" version="1.1" xmlns="http://www.w3.org/2000/svg" xmlns:xlink="http://www.w3.org/1999/xlink">
    <!-- Generator: sketchtool 53.2 (72643) - https://sketchapp.com -->
    <title>5BD0FE77-2894-45CF-B2D4-4006874517C5@1x</title>
    <desc>Created with sketchtool.</desc>
    <g id="Desktop" stroke="none" stroke-width="1" fill="none" fill-rule="evenodd">
        <g id="About" transform="translate(-400.000000, -1667.000000)" stroke="#000000" stroke-width="2">
            <g id="Content3" transform="translate(234.000000, 1661.000000)">
                <g id="Green-Initiatives">
                    <g id="Icon-Leaf" transform="translate(155.000000, 0.000000)">
                        <g id="Group-13" transform="translate(12.000000, 8.000000)">
                            <path d="M35,22 C35,34.1504613 17.4996443,44 17.4996443,44 C17.4996443,44 0,34.1504613 0,22 C0,9.84953868 17.4996443,0 17.4996443,0 C17.4996443,0 35,9.84953868 35,22 Z" id="Stroke-1"></path>
                            <path d="M17.5,0 L17.5,44" id="Stroke-3"></path>
                            <path d="M18,21 L10.9360352,13.9360352" id="Stroke-9"></path>
                            <path d="M18,32 L6.12133789,20.1213379" id="Stroke-11"></path>
                            <path d="M24,22 L16.9360352,14.9360352" id="Stroke-9" transform="translate(20.000000, 18.000000) scale(1, -1) translate(-20.000000, -18.000000) "></path>
                            <path d="M29,32 L17.1213379,20.1213379" id="Stroke-11" transform="translate(23.000000, 26.000000) scale(1, -1) translate(-23.000000, -26.000000) "></path>
                        </g>
                    </g>
                </g>
            </g>
        </g>
    </g>
</svg>