<?xml version="1.0" encoding="UTF-8"?>
<svg width="20px" height="20px" viewBox="0 0 20 20" version="1.1" xmlns="http://www.w3.org/2000/svg" xmlns:xlink="http://www.w3.org/1999/xlink">
    <!-- Generator: sketchtool 57.1 (101010) - https://sketch.com -->
    <title>5B382F11-16E3-49B5-9DA6-0631A7F27588@1x</title>
    <desc>Created with sketchtool.</desc>
    <g id="Desktop" stroke="none" stroke-width="1" fill="none" fill-rule="evenodd">
        <g id="Homepage-1-v0" transform="translate(-1035.000000, -2924.000000)" fill="#8D7A70">
            <g id="Footer" transform="translate(0.000000, 2647.000000)">
                <path d="M1052.04111,294.042222 L1049.07778,294.042222 L1049.07778,289.401111 C1049.07778,288.294444 1049.05611,286.870556 1047.53611,286.870556 C1045.99222,286.870556 1045.75667,288.076111 1045.75667,289.321111 L1045.75667,294.042222 L1042.79389,294.042222 L1042.79389,284.498333 L1045.63778,284.498333 L1045.63778,285.802222 L1045.67833,285.802222 C1046.07389,285.051667 1047.04167,284.260556 1048.485,284.260556 C1051.48611,284.260556 1052.04111,286.236667 1052.04111,288.807222 L1052.04111,294.042222 Z M1039.44889,283.193333 C1038.49611,283.193333 1037.72778,282.422222 1037.72778,281.472778 C1037.72778,280.524444 1038.49611,279.753333 1039.44889,279.753333 C1040.39833,279.753333 1041.16833,280.524444 1041.16833,281.472778 C1041.16833,282.422222 1040.39833,283.193333 1039.44889,283.193333 L1039.44889,283.193333 Z M1037.96333,294.042222 L1040.93278,294.042222 L1040.93278,284.498333 L1037.96333,284.498333 L1037.96333,294.042222 Z M1053.51889,277 L1036.475,277 C1035.66167,277 1035,277.645556 1035,278.441111 L1035,295.557222 C1035,296.353333 1035.66167,297 1036.475,297 L1053.51889,297 C1054.33389,297 1055,296.353333 1055,295.557222 L1055,278.441111 C1055,277.645556 1054.33389,277 1053.51889,277 L1053.51889,277 Z" id="LinkedInfooter"></path>
            </g>
        </g>
    </g>
</svg>