<?xml version="1.0" encoding="UTF-8"?>
<svg width="50px" height="37px" viewBox="0 0 50 37" version="1.1" xmlns="http://www.w3.org/2000/svg" xmlns:xlink="http://www.w3.org/1999/xlink">
    <!-- Generator: sketchtool 57.1 (101010) - https://sketch.com -->
    <title>97A31790-CA16-49B4-8928-4DAC3896B165@1x</title>
    <desc>Created with sketchtool.</desc>
    <g id="Desktop" stroke="none" stroke-width="1" fill="none" fill-rule="evenodd">
        <g id="Homepage-1-v0" transform="translate(-1015.000000, -1709.000000)" fill="#85003B">
            <g id="Practices" transform="translate(135.000000, 1652.000000)">
                <path d="M928.248567,70.3118917 L929.704481,68.8557719 C930.098506,68.4616909 930.098506,67.8232671 929.704481,67.4292114 L919.558421,57.2837383 C919.180157,56.9054206 918.510326,56.9054206 918.132062,57.2837383 L912.462131,62.9544691 C911.865179,62.4579296 911.124437,62.1879973 910.338353,62.1879973 L891.775658,62.1879973 L891.775658,60.9072152 C891.775658,60.3495749 891.3245,59.8983679 890.766953,59.8983679 L887.153721,59.8983679 C887.149782,59.8983679 887.145838,59.9003402 887.141899,59.9003402 C887.13796,59.9003402 887.134021,59.8983679 887.132049,59.8983679 L881.008705,59.8983679 C880.451143,59.8983679 880,60.34959 880,60.9072152 L880,76.4358976 C880,76.9935379 880.451158,77.4447449 881.008705,77.4447449 L887.132049,77.4447449 C887.689611,77.4447449 888.140754,76.9935228 888.140754,76.4358976 L888.140754,74.9304956 L890.766918,74.9304956 C891.324479,74.9304956 891.775623,74.4792735 891.775623,73.9216483 L891.775623,72.8734055 L894.902205,74.8142764 C895.922712,75.4467732 897.094978,75.781761 898.290849,75.781761 L899.636461,75.781761 L897.626919,77.7935538 C897.437787,77.9827127 897.331399,78.2388641 897.331399,78.5068593 C897.331399,78.7728621 897.437787,79.031006 897.626919,79.2201648 L899.082833,80.6762846 L897.626919,82.1324044 C897.232894,82.5264854 897.232894,83.1649092 897.626919,83.5589649 L907.770961,93.704438 C907.960093,93.8935969 908.218181,94 908.484166,94 C908.752103,94 909.008239,93.8935969 909.197371,93.704438 L929.702327,73.1965897 C930.096353,72.8025087 930.096353,72.1640849 929.702327,71.7700292 L928.248567,70.3118917 Z M886,76 L882,76 L882,62 L886,62 L886,76 Z M890,73 L888,73 L888,62 L890,62 L890,73 Z M896.152458,73.3014863 L892,70.5809815 L892,64 L910.396337,64 C910.636465,64 910.864879,64.0741937 911.067939,64.2040405 L906.376669,69.156634 L905.761692,69.156634 C905.209187,69.156634 904.762135,69.6286043 904.762135,70.2118704 C904.762135,70.7951364 905.209202,71.2671067 905.761692,71.2671067 L913.705674,71.2671067 C914.420207,71.2671067 915,71.8792493 915,72.6335322 C915,72.9303175 914.908246,73.210641 914.742304,73.4455894 C914.728635,73.4600197 914.713017,73.4723818 914.701302,73.4888699 C914.451413,73.8124476 914.105867,73.9896956 913.725185,73.997937 C913.717379,73.997937 913.711521,74 913.705664,74 L898.458426,73.9958793 C897.644337,73.9958793 896.84779,73.756805 896.152798,73.3013227 L896.152458,73.3014863 Z M914.013874,75.4778473 C915.025932,75.4778473 915.972507,75.0293383 916.611477,74.2454267 C917.095672,73.6500463 917.363587,72.8999147 917.363587,72.1298677 C917.363587,70.2842342 915.863382,68.7819389 914.015906,68.7819389 L909.439846,68.7819389 L919.219043,59 L928,67.7815942 L908.780957,87 L900,78.220438 L902.742442,75.4777965 L914.013874,75.4778473 Z M908.781658,92 L900,83.2025788 L900.748206,82.4532028 L908.063122,89.7795531 C908.261576,89.9783181 908.521556,90.0777057 908.781556,90.0777057 C909.041536,90.0777057 909.301495,89.9783232 909.5,89.7795531 L927.251794,72 L928,72.749376 L908.781658,92 Z" id="CommercialLending"></path>
            </g>
        </g>
    </g>
</svg>