<?xml version="1.0" encoding="UTF-8"?>
<svg width="25px" height="22px" viewBox="0 0 25 22" version="1.1" xmlns="http://www.w3.org/2000/svg" xmlns:xlink="http://www.w3.org/1999/xlink">
    <!-- Generator: sketchtool 53.2 (72643) - https://sketchapp.com -->
    <title>84B8545F-B38F-4538-AD6C-E50A9921E29C@1x</title>
    <desc>Created with sketchtool.</desc>
    <g id="Desktop" stroke="none" stroke-width="1" fill="none" fill-rule="evenodd">
        <g id="Homepage" transform="translate(-135.000000, -2506.000000)" fill="#312E1F">
            <g id="Footer" transform="translate(0.000000, 2433.000000)">
                <g id="NewsletterIcon" transform="translate(135.000000, 72.887692)">
                    <path d="M21.8197761,0.28371898 L7.68731343,0.28371898 C5.98619403,0.28371898 4.60895522,1.68150788 4.60895522,3.40462789 L4.60895522,9.07900772 L3.20970149,9.07900772 C1.50858209,9.07900772 0.131343284,10.4767966 0.131343284,12.1999166 L0.131343284,18.1580155 C0.131343284,19.8811355 1.50858209,21.2789244 3.20970149,21.2789244 L21.2600746,21.2789244 C23.2682836,21.2789244 24.8981343,19.6284364 24.8981343,17.5905775 L24.8981343,3.40462789 C24.8981343,1.68150788 23.5190299,0.28371898 21.8197761,0.28371898 Z M4.60895522,18.1580154 C4.60895522,18.9410798 3.98208955,19.5766104 3.20970149,19.5766104 C2.43544776,19.5766104 1.81044776,18.9410798 1.81044776,18.1580154 L1.81044776,12.1999166 C1.81044776,11.4168522 2.43544776,10.7813217 3.20970149,10.7813217 L4.60895522,10.7813217 L4.60895522,18.1580154 Z M23.2190299,17.5905773 C23.2190299,18.1167815 23.0119403,18.6221796 22.6447761,18.9944189 C22.2772388,19.3666582 21.7787313,19.5766102 21.2600746,19.5766102 L5.92350746,19.5766102 C6.14514925,19.1377915 6.26007463,18.6516863 6.25858209,18.1580153 L6.25858209,3.40462781 C6.25858209,2.6215634 6.88544776,1.98603286 7.65783582,1.98603286 L21.8197761,1.98603286 C22.1899254,1.98603286 22.5455224,2.1354582 22.8078358,2.40139746 C23.0701493,2.66733673 23.2190299,3.02784899 23.2190299,3.40462781 L23.2190299,17.5905773 Z" id="Fill-1"></path>
                    <path d="M9.00186567,9.78830479 L13.4794776,9.78830479 C13.9429104,9.78830479 14.3190299,9.40698649 14.3190299,8.93714786 L14.3190299,4.6813632 C14.3190299,4.21152457 13.9429104,3.83020626 13.4794776,3.83020626 L9.00186567,3.83020626 C8.53843284,3.83020626 8.16231343,4.21152457 8.16231343,4.6813632 L8.16231343,8.93714786 C8.16231343,9.40698649 8.53843284,9.78830479 9.00186567,9.78830479 Z M9.84141791,5.53252015 L12.6399254,5.53252015 L12.6399254,8.08599091 L9.84141791,8.08599091 L9.84141791,5.53252015 Z" id="Fill-2"></path>
                    <path d="M20.4757463,4.68136303 L16.5578358,4.68136303 C16.094403,4.68136303 15.7182836,5.06268134 15.7182836,5.53251997 C15.7182836,6.0023586 16.094403,6.38367691 16.5578358,6.38367691 L20.4757463,6.38367691 C20.9391791,6.38367691 21.3152985,6.0023586 21.3152985,5.53251997 C21.3152985,5.06268134 20.9391791,4.68136303 20.4757463,4.68136303 Z" id="Fill-3"></path>
                    <path d="M20.4757463,8.08599055 L16.5578358,8.08599055 C16.094403,8.08599055 15.7182836,8.46730886 15.7182836,8.93714749 C15.7182836,9.40698613 16.094403,9.78830444 16.5578358,9.78830444 L20.4757463,9.78830444 C20.9391791,9.78830444 21.3152985,9.40698613 21.3152985,8.93714749 C21.3152985,8.46730886 20.9391791,8.08599055 20.4757463,8.08599055 Z" id="Fill-4"></path>
                    <path d="M20.4757463,11.7743372 L9.00186567,11.7743372 C8.53843284,11.7743372 8.16231343,12.1556555 8.16231343,12.6254942 C8.16231343,13.0953328 8.53843284,13.4766511 9.00186567,13.4766511 L20.4757463,13.4766511 C20.9391791,13.4766511 21.3152985,13.0953328 21.3152985,12.6254942 C21.3152985,12.1556555 20.9391791,11.7743372 20.4757463,11.7743372 Z" id="Fill-5"></path>
                    <path d="M20.4757463,15.1789652 L9.00186567,15.1789652 C8.53843284,15.1789652 8.16231343,15.5602836 8.16231343,16.0301222 C8.16231343,16.4999608 8.53843284,16.8812791 9.00186567,16.8812791 L20.4757463,16.8812791 C20.9391791,16.8812791 21.3152985,16.4999608 21.3152985,16.0301222 C21.3152985,15.5602836 20.9391791,15.1789652 20.4757463,15.1789652 Z" id="Fill-6"></path>
                </g>
            </g>
        </g>
    </g>
</svg>