<?xml version="1.0" encoding="UTF-8"?>
<svg width="12px" height="12px" viewBox="0 0 12 12" version="1.1" xmlns="http://www.w3.org/2000/svg" xmlns:xlink="http://www.w3.org/1999/xlink">
    <!-- Generator: sketchtool 53.2 (72643) - https://sketchapp.com -->
    <title>70DE3098-6A59-40A2-8E18-81BEEA6BCF1A@1x</title>
    <desc>Created with sketchtool.</desc>
    <g id="Desktop" stroke="none" stroke-width="1" fill="none" fill-rule="evenodd">
        <g id="Homepage" transform="translate(-136.000000, -32.000000)" fill="#107480">
            <g id="Nav">
                <path d="M136.003022,33.5276108 C136.003022,33.5276108 137.350828,31.955694 138.024832,32.0009592 C138.698835,32.0904924 139.59724,33.5726765 139.866921,34.4265326 C140.136402,35.2793916 139.55216,35.8636509 139.327758,36.1783135 C139.147638,36.4477108 138.968516,36.6720425 138.968516,36.6720425 C139.507678,38.2892244 141.70881,40.4896685 143.326298,41.0286627 C143.326298,41.0286627 143.5507,40.8938643 143.86566,40.6695327 C144.135142,40.445201 144.718786,39.9062069 145.617988,40.1758036 C146.471114,40.4001353 147.953961,41.3433252 147.999041,41.972052 C148.04432,42.6456452 146.471912,43.9932303 146.471912,43.9932303 C141.170445,44.2175619 135.824498,38.8282185 136.004418,33.529206 L136.003022,33.5276108 Z" id="Phone-Icon"></path>
            </g>
        </g>
    </g>
</svg>