<?xml version="1.0" encoding="iso-8859-1"?>
<!-- Generator: Adobe Illustrator 19.2.0, SVG Export Plug-In . SVG Version: 6.00 Build 0)  -->
<svg xmlns="http://www.w3.org/2000/svg" xmlns:xlink="http://www.w3.org/1999/xlink" version="1.1" id="Layer_1" x="0px" y="0px" viewBox="0 0 40 40" style="enable-background:new 0 0 40 40;" xml:space="preserve">
<g>
	<g>
		<path style="fill:#4788C7;" d="M23.265,2l0.938,3h-8.405l0.938-3H23.265 M24,1h-8l-1.25,4v1h10.5V5L24,1L24,1z"/>
	</g>
</g>
<g>
	<path style="fill:#DFF0FE;" d="M9,37.5c-1.378,0-2.5-1.122-2.5-2.5V10.5h27V35c0,1.378-1.122,2.5-2.5,2.5H9z"/>
	<path style="fill:#4788C7;" d="M33,11v24c0,1.103-0.897,2-2,2H9c-1.103,0-2-0.897-2-2V11H33 M34,10H6v25c0,1.657,1.343,3,3,3h22   c1.657,0,3-1.343,3-3V10L34,10z"/>
</g>
<g>
	<path style="fill:#DFF0FE;" d="M3.5,10.5V9c0-0.827,0.673-1.5,1.5-1.5h30c0.827,0,1.5,0.673,1.5,1.5v1.5H3.5z"/>
	<g>
		<path style="fill:#4788C7;" d="M35,8c0.551,0,1,0.449,1,1v1H4V9c0-0.551,0.449-1,1-1H35 M35,7H5C3.895,7,3,7.895,3,9v2h34V9    C37,7.895,36.105,7,35,7L35,7z"/>
	</g>
</g>
<g>
	<path style="fill:#DFF0FE;" d="M5.946,7.5l0.408-0.598C7.379,5.398,9.078,4.5,10.898,4.5h18.203c1.82,0,3.519,0.898,4.544,2.402   L34.054,7.5H5.946z"/>
	<g>
		<path style="fill:#4788C7;" d="M29.102,5c1.579,0,3.058,0.744,4,2H6.898c0.942-1.256,2.421-2,4-2H29.102 M29.102,4H10.898    c-1.984,0-3.84,0.981-4.957,2.62L5,8h30l-0.941-1.38C32.941,4.981,31.086,4,29.102,4L29.102,4z"/>
	</g>
</g>
<path style="fill:#4788C7;" d="M9.5,34L9.5,34C9.225,34,9,33.775,9,33.5v-19C9,14.225,9.225,14,9.5,14h0c0.275,0,0.5,0.225,0.5,0.5  v19C10,33.775,9.775,34,9.5,34z"/>
<path style="fill:#4788C7;" d="M15.5,34L15.5,34c-0.275,0-0.5-0.225-0.5-0.5v-19c0-0.275,0.225-0.5,0.5-0.5h0  c0.275,0,0.5,0.225,0.5,0.5v19C16,33.775,15.775,34,15.5,34z"/>
<path style="fill:#4788C7;" d="M24.5,34L24.5,34c-0.275,0-0.5-0.225-0.5-0.5v-19c0-0.275,0.225-0.5,0.5-0.5l0,0  c0.275,0,0.5,0.225,0.5,0.5v19C25,33.775,24.775,34,24.5,34z"/>
<path style="fill:#4788C7;" d="M30.5,34L30.5,34c-0.275,0-0.5-0.225-0.5-0.5v-19c0-0.275,0.225-0.5,0.5-0.5l0,0  c0.275,0,0.5,0.225,0.5,0.5v19C31,33.775,30.775,34,30.5,34z"/>
</svg>
