<?xml version="1.0" encoding="UTF-8"?>
<svg width="214px" height="49px" viewBox="0 0 214 49" version="1.1" xmlns="http://www.w3.org/2000/svg" xmlns:xlink="http://www.w3.org/1999/xlink">
    <!-- Generator: sketchtool 53.2 (72643) - https://sketchapp.com -->
    <title>93945EE0-FD25-48AB-9F6F-BBEBF60AB42A@1x</title>
    <desc>Created with sketchtool.</desc>
    <defs>
        <polygon id="path-1" points="0.454508404 0.562141506 39.9948047 0.562141506 39.9948047 14.6842943 0.454508404 14.6842943"></polygon>
        <polygon id="path-3" points="0.257628394 0.462555294 99.3872585 0.462555294 99.3872585 47.3968334 0.257628394 47.3968334"></polygon>
        <polygon id="path-5" points="0 48.0576921 213.665881 48.0576921 213.665881 0.462555294 0 0.462555294"></polygon>
    </defs>
    <g id="Desktop" stroke="none" stroke-width="1" fill="none" fill-rule="evenodd">
        <g id="Homepage" transform="translate(-613.000000, -20.000000)">
            <g id="Nav">
                <g id="Element-/-Logo" transform="translate(613.000000, 20.000000)">
                    <g id="Logo">
                        <polygon id="Fill-1" fill="#107480" points="0.761496989 46.308981 0 47.7429159 0.659964057 47.7429159 3.79170618 47.7435897 11.0204393 33.1717653 31.2865497 33.1717653 29.8136362 30.0222297 12.5345148 30.0222297 21.1668722 12.6371166 19.2878269 8.79487179"></polygon>
                        <g id="Group-24">
                            <g id="Group-4" transform="translate(80.767744, 33.373397)">
                                <mask id="mask-2" fill="white">
                                    <use xlink:href="#path-1"></use>
                                </mask>
                                <g id="Clip-3"></g>
                                <path d="M35.8114499,0.940595837 C32.3073726,7.45775297 24.8698372,11.5066136 16.4023405,11.5066136 C11.6025276,11.5066136 7.11612123,10.1796873 3.42772772,7.67067525 L2.93207612,7.33360393 L0.454508404,9.6944381 L1.16485033,10.1790198 C5.48903093,13.1265583 10.7582631,14.6844285 16.4023405,14.6844285 C26.4313468,14.6844285 35.4932112,9.53691566 39.4894886,1.57068559 L39.9948047,0.562141506 L36.0150951,0.562141506 L35.8114499,0.940595837 Z" id="Fill-2" fill="#107480" mask="url(#mask-2)"></path>
                            </g>
                            <g id="Group-7" transform="translate(21.400000, 0.000000)">
                                <mask id="mask-4" fill="white">
                                    <use xlink:href="#path-3"></use>
                                </mask>
                                <g id="Clip-6"></g>
                                <path d="M95.1887167,14.924517 L95.3965037,15.2862847 L99.3872585,15.2862847 L98.8508779,14.2657262 C94.6675231,6.30617061 85.6077298,1.1633299 75.7699429,1.1633299 C66.8136979,1.1633299 58.9184787,5.38106 54.3230014,11.7553791 C52.4391111,5.59131241 46.0342984,1.90889162 36.674905,1.90889162 L21.8467763,1.90889162 L21.8467763,39.5487454 L2.85738318,1.71999819 L2.82217673,1.64924658 L2.80975092,1.62521774 L2.1974348,0.462488531 L1.6251574,1.62521774 L0.257628394,4.40054955 L21.886815,47.3968338 L25.1748214,47.3968338 L25.3315246,47.3961663 L25.3315246,47.3120653 L25.3315246,4.95655037 L36.674905,4.95655037 C45.8637887,4.95655037 51.3497821,8.99806893 51.3497821,15.7668616 C51.3497821,16.6072038 51.2641821,17.4061629 51.0978144,18.1604018 C50.9797692,18.5361862 50.8720789,18.915308 50.7740531,19.2977672 C49.1462725,23.9166455 44.1296984,26.5771729 36.674905,26.5771729 L30.0719697,26.5771729 L30.0719697,29.6248316 L36.674905,29.6248316 C42.3721372,29.6248316 46.9731371,28.2591921 50.1286015,25.8022425 C50.3847112,30.7468453 52.2734337,35.3683935 55.6359949,39.2303632 L56.1530465,39.8237422 L58.5891949,37.4008335 L58.1832852,36.9162517 C55.3074014,33.482129 53.7231111,29.1222282 53.7231111,24.6408483 C53.7231111,13.4480779 63.6133625,4.34247984 75.7699429,4.34247984 C83.6230524,4.34247984 91.6087038,8.69437101 95.1887167,14.924517 Z" id="Fill-5" fill="#107480" mask="url(#mask-4)"></path>
                            </g>
                            <path d="M99.6386714,23.2075265 C99.5289101,23.3917477 99.3825618,23.5332509 99.2003166,23.6313687 C99.0180714,23.7301539 98.8102843,23.7975682 98.5769553,23.8342789 C98.3443166,23.8709897 98.1096069,23.8896788 97.8721359,23.8896788 L96.2705875,23.8896788 L96.2705875,21.0883158 L97.8721359,21.0883158 C98.1096069,21.0883158 98.3443166,21.1063375 98.5769553,21.1437157 C98.8102843,21.1804264 99.0180714,21.2478407 99.2003166,21.3459585 C99.3825618,21.4447437 99.5289101,21.5855794 99.6386714,21.7704681 C99.7484327,21.9546892 99.8036585,22.1943102 99.8036585,22.4886636 C99.8036585,22.7836844 99.7484327,23.0233054 99.6386714,23.2075265 M100.521594,20.8607093 C100.305523,20.627763 100.010755,20.4348647 99.6386716,20.2833495 C99.2652071,20.1318343 98.7916457,20.0564104 98.2152264,20.0564104 L95.0507875,20.0564104 L95.0507875,28.7555204 L96.2705876,28.7555204 L96.2705876,24.9215844 L98.2152264,24.9215844 C98.7916457,24.9215844 99.2652071,24.8461605 99.6386716,24.6946453 C100.010755,24.54313 100.305523,24.3502318 100.521594,24.1172855 C100.737665,23.8836717 100.888156,23.6213568 100.972375,23.3303408 C101.057285,23.0399922 101.100085,22.7589882 101.100085,22.4886637 C101.100085,22.2190066 101.057285,21.9380026 100.972375,21.6469866 C100.888156,21.356638 100.737665,21.0943231 100.521594,20.8607093" id="Fill-8" fill="#030000"></path>
                            <path d="M108.965767,25.5730329 L110.668793,21.5795722 L110.693644,21.5795722 L112.371819,25.5730329 L108.965767,25.5730329 Z M110.185567,20.0564104 L106.221044,28.7555204 L107.643799,28.7555204 L108.533625,26.6049386 L112.816386,26.6049386 L113.718638,28.7555204 L115.141393,28.7555204 L111.291464,20.0564104 L110.185567,20.0564104 Z" id="Fill-10" fill="#030000"></path>
                            <path d="M127.481107,27.5633561 C127.091765,27.7682687 126.638223,27.8703913 126.121862,27.8703913 C125.596527,27.8703913 125.125727,27.7802831 124.710843,27.6000668 C124.295959,27.4205179 123.944585,27.1742222 123.65603,26.8631822 C123.368165,26.5521421 123.147952,26.1917094 122.995391,25.7818841 C122.84283,25.3720588 122.766204,24.9382046 122.766204,24.4796541 C122.766204,23.9877302 122.846972,23.5271774 123.008507,23.097328 C123.169352,22.6668112 123.395778,22.2923616 123.687785,21.9726445 C123.980481,21.6535948 124.331856,21.4012919 124.743288,21.2170708 C125.15334,21.0328496 125.613094,20.940739 126.121862,20.940739 C126.536746,20.940739 126.939204,21.0268424 127.329236,21.1983817 C127.718578,21.3705884 128.040269,21.6162166 128.294307,21.9359338 L129.311153,21.1863672 C128.946662,20.7278168 128.478624,20.3874081 127.907036,20.1664762 C127.334759,19.9455443 126.752817,19.8347446 126.15983,19.8347446 C125.464675,19.8347446 124.829578,19.9495491 124.253849,20.1791581 C123.67743,20.4080996 123.183849,20.7298192 122.773107,21.1436493 C122.362365,21.5574794 122.042056,22.0487358 121.813559,22.618086 C121.584372,23.1874362 121.470468,23.8075139 121.470468,24.4796541 C121.470468,25.0283128 121.576778,25.5709642 121.788017,26.1076085 C121.999946,26.6442527 122.307139,27.1254971 122.709598,27.5513416 C123.111365,27.9771862 123.599423,28.3209322 124.17101,28.5832471 C124.743288,28.845562 125.384598,28.9763857 126.09563,28.9763857 C126.612682,28.9763857 127.067604,28.9129762 127.462469,28.7861573 C127.856643,28.6593384 128.19352,28.511828 128.472411,28.3436261 C128.751991,28.1760916 128.976346,28.0078897 129.146165,27.8396878 C129.315295,27.6721533 129.43403,27.543332 129.501682,27.4525564 L128.472411,26.7036573 C128.201114,27.0720996 127.87114,27.3591109 127.481107,27.5633561" id="Fill-12" fill="#030000"></path>
                            <polygon id="Fill-14" fill="#030000" points="143.695613 20.0560102 141.993278 20.0560102 138.015639 23.8158572 137.914161 23.8158572 137.914161 20.0560102 136.694361 20.0560102 136.694361 28.7551202 137.914161 28.7551202 137.914161 24.4058989 138.015639 24.4058989 142.209349 28.7551202 143.98831 28.7551202 139.350032 24.0741673"></polygon>
                            <path d="M152.248435,25.5730329 L153.952151,21.5795722 L153.977003,21.5795722 L155.654487,25.5730329 L152.248435,25.5730329 Z M153.468925,20.0564104 L149.504403,28.7555204 L150.927158,28.7555204 L151.816984,26.6049386 L156.099055,26.6049386 L157.001997,28.7555204 L158.424751,28.7555204 L154.574132,20.0564104 L153.468925,20.0564104 Z" id="Fill-16" fill="#030000"></path>
                            <path d="M169.75998,24.9958069 L171.755012,24.9958069 L171.755012,27.4160457 C171.484405,27.5635562 171.155812,27.6763582 170.770612,27.7537845 C170.384721,27.8318783 169.97605,27.8705914 169.544599,27.8705914 C169.044805,27.8705914 168.58298,27.7831531 168.158431,27.6069416 C167.735263,27.43073 167.366631,27.1871042 167.053225,26.8753967 C166.740509,26.5643566 166.494754,26.1979167 166.31596,25.776077 C166.138547,25.3542372 166.049496,24.8976892 166.049496,24.4057653 C166.049496,23.9311956 166.130263,23.4826571 166.291108,23.0601499 C166.451263,22.6389776 166.68045,22.2718702 166.976599,21.9608302 C167.274128,21.6497901 167.629644,21.401492 168.044528,21.2172709 C168.459412,21.0330497 168.92607,20.9409391 169.442431,20.9409391 C169.900115,20.9409391 170.335709,21.0083534 170.751973,21.1438494 C171.166857,21.2786779 171.561031,21.5182989 171.933805,21.8627124 L172.797399,20.9656355 C172.441883,20.6132124 172.000767,20.3368806 171.476121,20.1359728 C170.950786,19.9357324 170.272199,19.8349447 169.442431,19.8349447 C168.756941,19.8349447 168.125296,19.9517516 167.549567,20.1853654 C166.973147,20.4189792 166.478876,20.7400313 166.068825,21.1498566 C165.658083,21.5596819 165.335702,22.0429287 165.103063,22.599597 C164.869734,23.1569327 164.75376,23.7583214 164.75376,24.4057653 C164.75376,25.0205033 164.86145,25.6038702 165.077521,26.1565337 C165.293592,26.7098646 165.606308,27.1951138 166.017741,27.6129488 C166.428483,28.0307837 166.933109,28.3625153 167.530238,28.6081435 C168.127367,28.8537717 168.807334,28.9765858 169.56945,28.9765858 C169.840747,28.9765858 170.130683,28.9592316 170.439947,28.9278606 C170.749212,28.8944872 171.054334,28.8437597 171.354625,28.7736755 C171.655605,28.7042589 171.945541,28.6201579 172.225121,28.5220401 C172.505392,28.4239223 172.755289,28.3091179 172.975502,28.1782941 L172.975502,23.8898126 L169.75998,23.8898126 L169.75998,24.9958069 Z" id="Fill-18" fill="#030000"></path>
                            <mask id="mask-6" fill="white">
                                <use xlink:href="#path-5"></use>
                            </mask>
                            <g id="Clip-21"></g>
                            <polygon id="Fill-20" fill="#030000" mask="url(#mask-6)" points="180.918369 28.7558547 182.138169 28.7558547 182.138169 20.0567447 180.918369 20.0567447"></polygon>
                            <polygon id="Fill-22" fill="#030000" mask="url(#mask-6)" points="196.752014 27.2074621 196.725781 27.2074621 191.769956 20.0562103 190.169098 20.0562103 190.169098 28.7553203 191.388898 28.7553203 191.388898 21.603401 191.41444 21.603401 196.421349 28.7553203 197.971814 28.7553203 197.971814 20.0562103 196.752014 20.0562103"></polygon>
                            <path d="M210.450578,23.8896795 L210.450578,24.9956739 L212.44561,24.9956739 L212.44561,27.4159127 C212.175004,27.5634232 211.84572,27.6762252 211.46121,27.7536515 C211.074629,27.8317453 210.665958,27.8704584 210.235197,27.8704584 C209.735404,27.8704584 209.273578,27.7830201 208.84972,27.6068086 C208.425171,27.430597 208.057229,27.1869712 207.743823,26.8752637 C207.431107,26.5642236 207.185352,26.1977837 207.006558,25.775944 C206.829146,25.3541042 206.740094,24.8975562 206.740094,24.4056323 C206.740094,23.9310626 206.820171,23.4825241 206.981707,23.0600169 C207.142552,22.6388446 207.371049,22.2717372 207.667887,21.9606972 C207.964036,21.6496571 208.320242,21.401359 208.735126,21.2171379 C209.14932,21.0329167 209.616668,20.9408061 210.133029,20.9408061 C210.590023,20.9408061 211.026307,21.0082204 211.442571,21.1437164 C211.857455,21.2785449 212.250939,21.5181659 212.623713,21.8625794 L213.487307,20.9655025 C213.132481,20.6130794 212.691365,20.3367476 212.166029,20.1358398 C211.641384,19.9355994 210.963487,19.8348117 210.133029,19.8348117 C209.447539,19.8348117 208.815894,19.9516186 208.240165,20.1852324 C207.663746,20.4188462 207.170855,20.7398983 206.758733,21.1497236 C206.348681,21.5595489 206.0263,22.0427957 205.793662,22.599464 C205.560333,23.1567997 205.444358,23.7588558 205.444358,24.4056323 C205.444358,25.0203703 205.551358,25.6037372 205.76812,26.1564007 C205.9835,26.7097316 206.296216,27.1949808 206.708339,27.6128158 C207.119081,28.0306507 207.623016,28.3623823 208.220836,28.6080105 C208.817965,28.8536387 209.497933,28.9764528 210.260049,28.9764528 C210.530655,28.9764528 210.821281,28.9597661 211.129855,28.9277276 C211.43981,28.8943542 211.744933,28.8436267 212.045223,28.7735425 C212.346204,28.7041259 212.636139,28.6200249 212.915029,28.5219071 C213.195991,28.4237893 213.445887,28.3089849 213.66541,28.1781611 L213.66541,23.8896795 L210.450578,23.8896795 Z" id="Fill-23" fill="#030000" mask="url(#mask-6)"></path>
                        </g>
                    </g>
                </g>
            </g>
        </g>
    </g>
</svg>